<?xml version="1.0" encoding="UTF-8" standalone="no"?>
<!-- Created with Inkscape (http://www.inkscape.org/) -->

<svg
   xmlns:dc="http://purl.org/dc/elements/1.1/"
   xmlns:cc="http://creativecommons.org/ns#"
   xmlns:rdf="http://www.w3.org/1999/02/22-rdf-syntax-ns#"
   xmlns:svg="http://www.w3.org/2000/svg"
   xmlns="http://www.w3.org/2000/svg"
   xmlns:xlink="http://www.w3.org/1999/xlink"
   xmlns:sodipodi="http://sodipodi.sourceforge.net/DTD/sodipodi-0.dtd"
   xmlns:inkscape="http://www.inkscape.org/namespaces/inkscape"
   inkscape:export-ydpi="100"
   inkscape:export-xdpi="100"
   inkscape:export-filename="DETECT_sadd_ori_small.png"
   sodipodi:docname="DETECT_sadd_ori.svg"
   inkscape:version="0.92.1 r"
   version="1.1"
   id="svg2"
   height="466.13333"
   width="853.33331">
  <sodipodi:namedview
     id="base"
     pagecolor="#ffffff"
     bordercolor="#666666"
     borderopacity="1.0"
     inkscape:pageopacity="0.0"
     inkscape:pageshadow="2"
     inkscape:zoom="0.66733203"
     inkscape:cx="79.914717"
     inkscape:cy="216.17912"
     inkscape:document-units="px"
     inkscape:current-layer="layer1"
     showgrid="false"
     fit-margin-top="0"
     fit-margin-left="0"
     fit-margin-right="0"
     fit-margin-bottom="0"
     inkscape:window-width="679"
     inkscape:window-height="729"
     inkscape:window-x="683"
     inkscape:window-y="18"
     inkscape:window-maximized="0"
     inkscape:snap-object-midpoints="true" />
  <defs
     id="defs4" />
  <metadata
     id="metadata7">
    <rdf:RDF>
      <cc:Work
         rdf:about="">
        <dc:format>image/svg+xml</dc:format>
        <dc:type
           rdf:resource="http://purl.org/dc/dcmitype/StillImage" />
        <dc:title />
      </cc:Work>
    </rdf:RDF>
  </metadata>
  <g
     transform="translate(98.776229,-139.19405)"
     id="layer1"
     inkscape:groupmode="layer"
     inkscape:label="Calque 1">
    <image
       sodipodi:absref="/home/glaunay/dev/perso-site/assets/pics/DETECT_sadd_ori_raw.png"
       xlink:href="DETECT_sadd_ori_raw.png"
       y="139.19405"
       x="-98.77623"
       id="image3004"
       height="466.13333"
       width="853.33331" />
    <path
       sodipodi:nodetypes="ccc"
       inkscape:connector-curvature="0"
       id="path3059"
       d="m 361.23786,352.61818 26.47091,-87.43772 -22.96674,-7.17221"
       style="fill:none;stroke:#000000;stroke-width:1.06666672px;stroke-linecap:butt;stroke-linejoin:miter;stroke-opacity:1" />
    <path
       sodipodi:nodetypes="cc"
       inkscape:connector-curvature="0"
       id="path3059-4"
       d="m 446.67796,411.07829 -85.4401,-58.46011"
       style="fill:none;stroke:#000000;stroke-width:1.06666672;stroke-linecap:butt;stroke-linejoin:miter;stroke-miterlimit:4;stroke-dasharray:none;stroke-opacity:1" />
    <path
       sodipodi:nodetypes="cc"
       inkscape:connector-curvature="0"
       id="path3059-4-8"
       d="M 546.16394,360.00839 361.23786,352.61818"
       style="fill:none;stroke:#000000;stroke-width:1.06666672;stroke-linecap:butt;stroke-linejoin:miter;stroke-miterlimit:4;stroke-dasharray:none;stroke-opacity:1" />
    <path
       sodipodi:nodetypes="cc"
       inkscape:connector-curvature="0"
       id="path3059-4-8-2"
       d="M 637.29967,259.93826 513.55393,313.09967"
       style="fill:none;stroke:#000000;stroke-width:1.06666672;stroke-linecap:butt;stroke-linejoin:miter;stroke-miterlimit:4;stroke-dasharray:none;stroke-opacity:1" />
    <path
       sodipodi:nodetypes="cc"
       inkscape:connector-curvature="0"
       id="path3059-4-8-2-7"
       d="m 555.1059,455.80672 95.9102,4.18452"
       style="fill:none;stroke:#000000;stroke-width:1.06666672;stroke-linecap:butt;stroke-linejoin:miter;stroke-miterlimit:4;stroke-dasharray:none;stroke-opacity:1" />
    <path
       sodipodi:nodetypes="cc"
       inkscape:connector-curvature="0"
       id="path3059-4-8-2-7-6"
       d="m 98.22479,290.04677 77.00707,62.60562"
       style="fill:none;stroke:#000000;stroke-width:1.06666672;stroke-linecap:butt;stroke-linejoin:miter;stroke-miterlimit:4;stroke-dasharray:none;stroke-opacity:1" />
    <g
       transform="translate(-73.127017,224.97547)"
       id="g4081">
      <rect
         style="font-style:normal;font-variant:normal;font-weight:normal;font-stretch:normal;letter-spacing:normal;word-spacing:normal;text-anchor:start;fill:#ffffff;fill-opacity:1;stroke:#000000;stroke-width:2.13333344;stroke-linecap:round;stroke-linejoin:round;stroke-miterlimit:4;stroke-dasharray:none;stroke-dashoffset:1.79999995;stroke-opacity:1"
         id="rect3245"
         width="102.28698"
         height="70.075058"
         x="120.20832"
         y="30.033783" />
      <g
         id="g3167"
         transform="translate(4.7344286e-4,-389.94449)">
        <g
           word-spacing="normal"
           letter-spacing="normal"
           font-size-adjust="none"
           font-stretch="normal"
           font-weight="normal"
           font-variant="normal"
           font-style="normal"
           stroke-miterlimit="10.433"
           xml:space="preserve"
           transform="matrix(0.62428571,0,0,-0.62428571,-116.53333,640)"
           id="content"
           style="font-style:normal;font-variant:normal;font-weight:normal;font-stretch:normal;letter-spacing:normal;word-spacing:normal;text-anchor:start;fill:none;stroke:#000000;stroke-linecap:butt;stroke-linejoin:miter;stroke-miterlimit:10.43299961;stroke-dasharray:none;stroke-dashoffset:0;stroke-opacity:1"><g
             id="g3239"
             transform="translate(-94.974844,-127.31749)"><path
               style="fill:#000000;stroke-width:0"
               inkscape:connector-curvature="0"
               d="m 498.21867,468.87467 -0.0427,0.064 -0.0427,0.0533 -0.0427,0.0533 -0.032,0.0533 -0.0427,0.0427 -0.032,0.0427 -0.032,0.0427 -0.032,0.032 -0.032,0.0427 -0.032,0.032 -0.032,0.0213 -0.0427,0.032 -0.032,0.0213 -0.032,0.0213 -0.032,0.0213 -0.0427,0.0213 -0.032,0.0213 -0.0427,0.0107 -0.0427,0.0107 -0.0427,0.0107 -0.0533,0.0107 -0.0427,0.0107 -0.0533,0.0107 h -0.064 l -0.0533,0.0107 h -0.064 -0.0747 l -0.064,0.0107 h -0.0853 -0.032 -0.0427 -0.0427 -0.0427 -0.0533 -0.0427 -9.03467 v -1.65334 h 1.54667 c 0.8,0 1.856,-0.0427 2.656,-0.096 1.216,-0.17066 1.28,-0.21333 1.28,-1.23733 v -27.73333 c 0,-1.42934 0,-3.92534 -5.48267,-3.92534 V 433.28 c 1.86667,0.0533 4.46934,0.17067 6.21867,0.17067 1.76,0 4.36267,-0.11734 6.21867,-0.17067 v 1.65333 c -5.472,0 -5.472,2.496 -5.472,3.92534 V 466.496 c 0.26666,-0.26667 0.32,-0.32 0.53333,-0.62933 l 21.68533,-31.904 c 0.46934,-0.62934 0.53334,-0.68267 0.896,-0.68267 0.75734,0 0.75734,0.36267 0.75734,1.38667 V 464 c 0,1.42933 0,3.92533 5.46133,3.92533 v 1.65334 c -1.86667,-0.0533 -4.46933,-0.17067 -6.21867,-0.17067 -1.74933,0 -4.36266,0.11733 -6.208,0.17067 v -1.65334 c 5.46134,0 5.46134,-2.496 5.46134,-3.92533 v -22.70933 z"
               id="path3170" /><path
               style="fill:#000000;stroke-width:0"
               inkscape:connector-curvature="0"
               d="m 549.65333,445.55733 0.0533,1.12 c 0.53333,7.75467 4.94933,9.23734 6.86933,9.23734 5.03467,0 5.30133,-7.168 5.41867,-9.23734 h -12.288 l -0.0533,-1.12 h 14.51734 c 1.17333,0 1.32266,0 1.32266,1.12 0,5.888 -3.08266,10.4 -8.864,10.4 -3.34933,0 -6.70933,-1.80266 -8.84266,-5.36533 -1.89867,3.02933 -5.248,5.36533 -9.29067,5.36533 l 0.064,-1.16266 c 0.94933,0 7.43467,-0.416 7.43467,-10.784 0,-10.15467 -5.73867,-11.264 -7.43467,-11.264 v 0 c -1.184,0 -7.28533,0.48 -7.28533,11.264 0,10.25066 5.952,10.784 7.28533,10.784 l -0.064,1.16266 c -6.05867,0 -11.31733,-5.248 -11.31733,-12.16 0,-6.90133 5.216,-12.224 11.31733,-12.224 4.26667,0 7.59467,2.54934 9.36533,5.536 2.32534,-3.88266 6.16534,-5.536 9.39734,-5.536 5.99466,0 8.23466,5.89867 8.23466,6.90134 0,0.53333 -0.416,0.65066 -0.68266,0.65066 -0.49067,0 -0.53334,-0.21333 -0.8,-1.06666 -0.8,-2.64534 -3.25334,-5.152 -6.53867,-5.152 -0.53333,0 -7.81867,0 -7.81867,11.53066 z"
               id="path3172" /><path
               style="fill:#000000;stroke-width:0"
               inkscape:connector-curvature="0"
               d="m 587.81867,437.48267 v -4.78934 l 7.648,0.58667 v 1.65333 c -3.712,0 -4.14934,0.36267 -4.14934,2.96534 v 18.85866 l -7.81866,-0.576 V 454.528 c 3.73333,0 4.14933,-0.36267 4.14933,-2.96533 v -9.472 c 0,-4.608 -2.54933,-8.224 -6.432,-8.224 -4.448,0 -4.66133,2.496 -4.66133,5.25866 v 17.632 l -7.81867,-0.576 V 454.528 c 4.14933,0 4.14933,-0.14933 4.14933,-4.88533 v -7.968 c 0,-4.14934 0,-8.98134 8.064,-8.98134 2.98667,0 5.32267,1.48267 6.86934,4.78934 z"
               id="path3174" /><path
               style="fill:#000000;stroke-width:0"
               inkscape:connector-curvature="0"
               d="m 616.8,436.192 v -3.49867 l 7.79733,0.58667 v 1.65333 c -3.712,0 -4.128,0.36267 -4.128,2.96534 v 32.26666 l -7.648,-0.58666 v -1.65334 c 3.712,0 4.128,-0.36266 4.128,-2.976 v -11.46666 c -1.536,1.89866 -3.81866,3.27466 -6.69866,3.27466 l 0.21333,-1.16266 c 1.86667,0 4.10667,-0.8 5.74933,-3.17867 C 616.8,451.50933 616.8,451.392 616.8,450.44267 v 0 -10.90134 c 0,-0.94933 0,-1.06666 -0.58667,-1.96266 -1.6,-2.54934 -4,-3.712 -6.28266,-3.712 -2.37867,0 -4.29867,1.376 -5.568,3.392 -1.376,2.18666 -1.54667,5.216 -1.54667,7.392 0,1.96266 0.096,5.16266 1.65333,7.54133 1.10934,1.65333 3.136,3.40267 5.99467,3.40267 l -0.21333,1.16266 c -6.272,0 -11.85067,-5.19466 -11.85067,-12.04266 0,-6.752 5.216,-12.02134 11.264,-12.02134 3.40267,0 5.80267,1.80267 7.136,3.49867 z"
               id="path3176" /></g><g
             id="g3231"
             transform="translate(-13.278845,-119.17043)"><path
               style="fill:#000000;stroke-width:0"
               inkscape:connector-curvature="0"
               d="m 417.32267,379.85067 0.11733,-0.0213 0.13867,-0.0213 0.14933,-0.032 0.17067,-0.0427 0.17066,-0.032 0.192,-0.0533 0.20267,-0.0533 0.21333,-0.064 0.224,-0.064 0.224,-0.0747 0.224,-0.0853 0.23467,-0.0853 0.23467,-0.10666 0.23466,-0.10667 0.23467,-0.11733 0.23467,-0.128 0.23466,-0.13867 0.224,-0.16 0.21334,-0.16 0.21333,-0.17067 0.20267,-0.192 0.192,-0.192 0.18133,-0.21333 0.17067,-0.23467 0.14933,-0.23466 0.0747,-0.128 0.064,-0.128 0.064,-0.128 0.0533,-0.13867 0.0533,-0.13867 0.0533,-0.14933 0.0427,-0.14933 0.032,-0.14934 0.032,-0.16 0.032,-0.16 0.0213,-0.16 0.0107,-0.17066 0.0107,-0.17067 0.0107,-0.18133 c 0,-2.69867 -1.86667,-4.832 -6.00534,-4.832 -4.46933,0 -6.37866,3.02933 -7.40266,7.552 -0.14934,0.68266 -0.192,0.896 -0.72534,0.896 -0.704,0 -0.704,-0.36267 -0.704,-1.33334 v -7.01866 c 0,-0.896 0,-1.26934 0.58667,-1.26934 0.26667,0 0.30933,0.0533 1.33333,1.06667 0.096,0.10667 0.096,0.20267 1.06667,1.22667 2.32533,-2.24 4.72533,-2.29334 5.84533,-2.29334 6.10134,0 8.55467,3.57334 8.55467,7.392 0,2.816 -1.6,4.416 -2.24,5.04534 -1.74933,1.696 -3.82933,2.13333 -6.05867,2.54933 -2.976,0.58667 -6.53866,1.28 -6.53866,4.37333 0,1.84534 1.38666,4.032 5.952,4.032 5.84533,0 6.112,-4.78933 6.21866,-6.432 0.064,-0.49066 0.53334,-0.49066 0.65067,-0.49066 0.68267,0 0.68267,0.26666 0.68267,1.29066 v 5.36534 c 0,0.896 0,1.25866 -0.58667,1.25866 -0.26667,0 -0.36267,0 -1.06667,-0.62933 -0.14933,-0.21333 -0.68266,-0.68267 -0.896,-0.85333 -2.016,1.48266 -4.20266,1.48266 -5.00266,1.48266 -6.48534,0 -8.50134,-3.54133 -8.50134,-6.528 0,-1.856 0.85334,-3.34933 2.28267,-4.52266 1.696,-1.376 3.2,-1.696 7.01867,-2.432 z"
               id="path3178" /><path
               style="fill:#000000;stroke-width:0"
               inkscape:connector-curvature="0"
               d="m 436.45867,390.784 h 7.60533 v 1.65333 h -7.60533 v 9.78134 h -1.33334 c -0.0427,-4.352 -1.64266,-10.048 -6.848,-10.25067 v -1.184 H 432.8 v -14.66667 c 0,-6.528 4.928,-7.168 6.848,-7.168 3.76533,0 5.26933,3.776 5.26933,7.168 v 3.04 H 443.584 v -2.92266 c 0,-3.92534 -1.6,-5.952 -3.57333,-5.952 -3.552,0 -3.552,4.84266 -3.552,5.73866 z"
               id="path3180" /><path
               style="fill:#000000;stroke-width:0"
               inkscape:connector-curvature="0"
               d="m 465.568,373.568 0.0213,-0.192 0.032,-0.20267 0.0427,-0.20266 0.0427,-0.192 0.0533,-0.20267 0.0533,-0.192 0.064,-0.192 0.0747,-0.192 0.0853,-0.192 0.0853,-0.18133 0.096,-0.18134 0.096,-0.18133 0.10666,-0.17067 0.11734,-0.17066 0.11733,-0.16 0.128,-0.16 0.13867,-0.14934 0.13866,-0.14933 0.14934,-0.13867 0.14933,-0.128 0.16,-0.11733 0.17067,-0.11733 0.17066,-0.10667 0.18134,-0.096 0.192,-0.0853 0.192,-0.0747 0.192,-0.064 0.21333,-0.0533 0.21333,-0.0427 0.21334,-0.032 0.224,-0.0213 0.23466,-0.0107 c 1.09867,0 4.352,0.75733 4.352,5.056 v 2.96533 H 472.736 V 374.272 c 0,-3.08267 -1.32267,-3.40267 -1.92,-3.40267 -1.74933,0 -1.96267,2.38934 -1.96267,2.656 v 10.624 c 0,2.24 0,4.30934 -1.89866,6.272 -2.09067,2.06934 -4.736,2.912 -7.28534,2.912 -4.37333,0 -8.032,-2.47466 -8.032,-5.99466 0,-1.58934 1.06667,-2.496 2.44267,-2.496 1.48267,0 2.45333,1.06666 2.45333,2.44266 0,0.64 -0.26666,2.38934 -2.72,2.45334 1.44,1.84533 4.032,2.432 5.73867,2.432 2.61333,0 5.632,-2.06934 5.632,-6.79467 v -1.97333 -1.12 -5.312 c 0,-5.04534 -3.81867,-6.848 -6.21867,-6.848 -2.60266,0 -4.77866,1.86666 -4.77866,4.512 0,2.92266 2.22933,7.33866 10.99733,7.648 v 0 1.12 c -2.69867,-0.14934 -6.42133,-0.32 -9.77067,-1.92 -3.97866,-1.792 -5.312,-4.56534 -5.312,-6.89067 0,-4.30933 5.152,-5.64267 8.50134,-5.64267 3.50933,0 5.952,2.12267 6.96533,4.61867 z"
               id="path3182" /><path
               style="fill:#000000;stroke-width:0"
               inkscape:connector-curvature="0"
               d="m 483.616,389.568 v 16.85333 l -7.648,-0.58666 V 404.192 c 3.72267,0 4.14933,-0.37333 4.14933,-2.98667 V 369.536 h 1.33334 c 0.0533,0.0533 0.46933,0.8 1.89866,3.30667 0.8,-1.23734 3.04,-3.89334 6.976,-3.89334 l -0.224,1.17334 c -2.37866,0 -4.29866,1.28 -5.568,3.25333 -0.74666,1.10933 -0.74666,1.25867 -0.74666,2.208 v 0 10.95467 c 0,1.01333 0,1.06666 0.58666,1.92 2.06934,2.976 5.00267,3.392 6.26134,3.392 2.4,0 4.32,-1.376 5.58933,-3.392 1.376,-2.18667 1.54667,-5.20534 1.54667,-7.392 0,-1.96267 -0.11734,-5.14134 -1.65334,-7.54134 -1.10933,-1.65333 -3.12533,-3.40266 -6.016,-3.40266 l 0.224,-1.17334 c 6.32534,0 11.85067,5.20534 11.85067,12.07467 0,6.752 -5.20533,12 -11.27467,12 -4.128,0 -6.432,-2.50667 -7.28533,-3.456 z"
               id="path3184" /><path
               style="fill:#000000;stroke-width:0"
               inkscape:connector-curvature="0"
               d="m 513.45067,406.42133 -7.648,-0.58666 V 404.192 c 3.72266,0 4.14933,-0.37333 4.14933,-2.98667 V 373.568 c 0,-2.37867 -0.576,-2.37867 -4.14933,-2.37867 V 369.536 c 1.74933,0.0533 4.56533,0.17067 5.89866,0.17067 1.33334,0 3.936,-0.11734 5.89867,-0.17067 v 1.65333 c -3.56267,0 -4.14933,0 -4.14933,2.37867 z"
               id="path3186" /><path
               style="fill:#000000;stroke-width:0"
               inkscape:connector-curvature="0"
               d="m 524.672,381.824 0.0533,1.10933 c 0.30934,7.92534 4.77867,9.23734 6.592,9.23734 5.472,0 6.00534,-7.168 6.00534,-9.23734 H 524.72533 L 524.672,381.824 h 14.83733 c 1.16267,0 1.312,0 1.312,1.10933 0,5.25867 -2.86933,10.4 -9.504,10.4 -6.16533,0 -11.06133,-5.46133 -11.06133,-12.11733 0,-7.11467 5.57867,-12.26667 11.70133,-12.26667 6.48534,0 8.864,5.90934 8.864,6.90134 0,0.53333 -0.416,0.65066 -0.68266,0.65066 -0.48,0 -0.58667,-0.30933 -0.704,-0.74666 -1.84534,-5.472 -6.63467,-5.472 -7.168,-5.472 -2.66667,0 -4.77867,1.58933 -5.99467,3.552 -1.6,2.54933 -1.6,6.06933 -1.6,7.98933 z"
               id="path3188" /></g></g>      </g>
    </g>
    <g
       transform="translate(186.88911,287.54687)"
       id="g4098">
      <rect
         y="30.033783"
         x="98.629852"
         height="70.075058"
         width="151.43779"
         id="rect4100"
         style="font-style:normal;font-variant:normal;font-weight:normal;font-stretch:normal;letter-spacing:normal;word-spacing:normal;text-anchor:start;fill:#ffffff;fill-opacity:1;stroke:#000000;stroke-width:2.13333344;stroke-linecap:round;stroke-linejoin:round;stroke-miterlimit:4;stroke-dasharray:none;stroke-dashoffset:1.79999995;stroke-opacity:1" />
      <g
         id="g4842"
         transform="translate(6.7338611,-310.60743)">
        <g
           word-spacing="normal"
           letter-spacing="normal"
           font-size-adjust="none"
           font-stretch="normal"
           font-weight="normal"
           font-variant="normal"
           font-style="normal"
           stroke-miterlimit="10.433"
           xml:space="preserve"
           transform="matrix(0.62428571,0,0,-0.62428571,-116.53333,640)"
           id="g4844"
           style="font-style:normal;font-variant:normal;font-weight:normal;font-stretch:normal;letter-spacing:normal;word-spacing:normal;text-anchor:start;fill:none;stroke:#000000;stroke-linecap:butt;stroke-linejoin:miter;stroke-miterlimit:10.43299961;stroke-dasharray:none;stroke-dashoffset:0;stroke-opacity:1"><g
             id="g4946"
             transform="translate(-139.19467)"><path
               style="fill:#000000;stroke-width:0"
               inkscape:connector-curvature="0"
               d="m 497.952,450.08 -0.16,1.36533 V 465.792 c 0,1.77067 0.11733,2.13333 2.592,2.13333 h 4.736 c 8.448,0 8.448,-5.632 8.448,-8.23466 0,-2.496 0,-8.24534 -8.448,-8.24534 h -7.328 l 0.16,-1.36533 h 8.98133 c 6.368,0 12.11734,4.29867 12.11734,9.61067 0,5.20533 -5.25867,9.888 -12.544,9.888 h -18.752 v -1.65334 h 1.26933 c 4.096,0 4.192,-0.576 4.192,-2.496 v -28 c 0,-1.92 -0.096,-2.496 -4.192,-2.496 h -1.26933 V 433.28 c 1.84533,0.17067 5.78133,0.17067 7.79733,0.17067 2.016,0 6.016,0 7.872,-0.17067 v 1.65333 h -1.26933 c -4.096,0 -4.20267,0.576 -4.20267,2.496 z"
               id="path4846" /><path
               style="fill:#000000;stroke-width:0"
               inkscape:connector-curvature="0"
               d="m 545.6,444.65067 -0.0107,0.62933 -0.0427,0.62933 -0.0747,0.61867 -0.10667,0.608 -0.13866,0.59733 -0.16,0.58667 -0.18134,0.576 -0.21333,0.56533 -0.23467,0.544 -0.26666,0.53334 -0.27734,0.52266 -0.30933,0.50134 -0.33067,0.49066 -0.352,0.46934 -0.37333,0.45866 -0.384,0.42667 -0.416,0.416 -0.42667,0.39467 -0.43733,0.37333 -0.46933,0.34133 -0.46934,0.33067 -0.49066,0.29867 -0.512,0.27733 -0.52267,0.256 -0.53333,0.224 -0.544,0.192 -0.55467,0.17067 -0.56533,0.13866 -0.576,0.11734 -0.576,0.0747 -0.59734,0.0533 -0.59733,0.0107 -0.0533,-1.16266 c 2.336,0 4.61866,-1.17334 6.00533,-3.456 1.376,-2.28267 1.376,-5.36534 1.376,-7.38134 0,-1.92 0,-4.77866 -1.16267,-7.11466 -1.16266,-2.4 -3.49866,-3.936 -6.16533,-3.936 v 0 c -2.28267,0 -4.61867,1.12 -6.048,3.552 -1.33333,2.34666 -1.33333,5.57866 -1.33333,7.49866 0,2.06934 0,4.93867 1.25866,7.28534 1.45067,2.432 3.936,3.552 6.06934,3.552 l 0.0533,1.16266 c -6.63467,0 -11.79733,-5.78133 -11.79733,-12.42666 0,-6.85867 5.52533,-11.95734 11.744,-11.95734 6.432,0 11.79733,5.20534 11.79733,11.95734 z"
               id="path4848" /><path
               style="fill:#000000;stroke-width:0"
               inkscape:connector-curvature="0"
               d="m 556.58667,456.75733 -7.424,-0.576 V 454.528 c 3.44533,0 3.92533,-0.32 3.92533,-2.912 v -14.304 c 0,-2.37867 -0.576,-2.37867 -4.14933,-2.37867 V 433.28 c 1.70666,0.0533 4.56533,0.17067 5.856,0.17067 1.86666,0 3.712,-0.11734 5.52533,-0.17067 v 1.65333 c -3.50933,0 -3.73333,0.26667 -3.73333,2.32534 z"
               id="path4850" /><path
               style="fill:#000000;stroke-width:0"
               inkscape:connector-curvature="0"
               d="m 556.81067,466.016 -0.0107,0.14933 -0.0107,0.16 -0.0107,0.14934 -0.032,0.14933 -0.032,0.13867 -0.0427,0.13866 -0.0427,0.13867 -0.0533,0.128 -0.0533,0.128 -0.064,0.128 -0.0747,0.11733 -0.0747,0.10667 -0.0853,0.10667 -0.0853,0.10666 -0.0853,0.10667 -0.096,0.0853 -0.096,0.096 -0.10666,0.0853 -0.10667,0.0747 -0.11733,0.0747 -0.10667,0.0747 -0.11733,0.064 -0.128,0.0533 -0.11734,0.0533 -0.128,0.0427 -0.128,0.0427 -0.13866,0.032 -0.128,0.032 -0.13867,0.0213 -0.128,0.0107 -0.13867,0.0107 -0.13866,0.0107 c -1.65334,0 -2.816,-1.44 -2.816,-2.816 0,-1.44 1.16266,-2.816 2.816,-2.816 1.48266,0 2.816,1.10933 2.816,2.816 z"
               id="path4852" /><path
               style="fill:#000000;stroke-width:0"
               inkscape:connector-curvature="0"
               d="M 567.75467,451.56267 V 437.312 c 0,-2.37867 -0.576,-2.37867 -4.14934,-2.37867 V 433.28 c 1.86667,0.0533 4.56534,0.17067 6.00534,0.17067 1.376,0 4.14933,-0.11734 5.952,-0.17067 v 1.65333 c -3.552,0 -4.13867,0 -4.13867,2.37867 v 9.78133 c 0,5.536 3.76533,8.50134 7.168,8.50134 3.34933,0 3.936,-2.86934 3.936,-5.89867 v -12.384 c 0,-2.37867 -0.58667,-2.37867 -4.14933,-2.37867 V 433.28 c 1.86666,0.0533 4.576,0.17067 6.016,0.17067 1.376,0 4.128,-0.11734 5.952,-0.17067 v 1.65333 c -2.77334,0 -4.10667,0 -4.16,1.6 v 10.144 c 0,4.56534 0,6.21867 -1.64267,8.11734 -0.736,0.91733 -2.50667,1.96266 -5.568,1.96266 -3.88267,0 -6.38933,-2.28266 -7.872,-5.55733 v 5.55733 l -7.49867,-0.576 V 454.528 c 3.72267,0 4.14934,-0.36267 4.14934,-2.96533 z"
               id="path4854" /><path
               style="fill:#000000;stroke-width:0"
               inkscape:connector-curvature="0"
               d="m 599.14667,454.528 h 7.59466 v 1.65333 h -7.59466 v 9.78134 h -1.33334 c -0.0533,-4.352 -1.65333,-10.048 -6.85866,-10.25067 v -1.184 h 4.52266 v -14.66667 c 0,-6.528 4.928,-7.168 6.848,-7.168 3.76534,0 5.26934,3.76534 5.26934,7.168 v 3.02934 h -1.33334 v -2.912 c 0,-3.936 -1.6,-5.952 -3.57333,-5.952 -3.54133,0 -3.54133,4.832 -3.54133,5.73866 z"
               id="path4856" /><path
               style="fill:#000000;stroke-width:0"
               inkscape:connector-curvature="0"
               d="m 621.6,443.59467 0.11733,-0.0213 0.128,-0.0213 0.16,-0.032 0.16,-0.0427 0.18134,-0.0427 0.192,-0.0427 0.20266,-0.0533 0.21334,-0.064 0.21333,-0.064 0.224,-0.0747 0.23467,-0.0853 0.23466,-0.0853 0.23467,-0.10666 0.23467,-0.10667 0.23466,-0.11733 0.23467,-0.128 0.23467,-0.14934 0.224,-0.14933 0.21333,-0.16 0.21333,-0.17067 0.20267,-0.192 0.192,-0.20266 0.18133,-0.21334 0.17067,-0.224 0.14933,-0.23466 0.0747,-0.128 0.064,-0.128 0.064,-0.13867 0.0533,-0.128 0.0533,-0.14933 0.0533,-0.13867 0.0427,-0.14933 0.032,-0.14934 0.032,-0.16 0.032,-0.16 0.0213,-0.17066 0.0107,-0.16 0.0107,-0.18134 v -0.17066 c 0,-2.69867 -1.86666,-4.832 -5.99466,-4.832 -4.46934,0 -6.38934,3.02933 -7.40267,7.54133 -0.14933,0.68267 -0.20267,0.90667 -0.736,0.90667 -0.69333,0 -0.69333,-0.37334 -0.69333,-1.33334 v -7.01866 c 0,-0.896 0,-1.26934 0.576,-1.26934 0.26666,0 0.32,0.0533 1.33333,1.06667 0.10667,0.10667 0.10667,0.20267 1.06667,1.216 2.336,-2.22933 4.736,-2.28267 5.856,-2.28267 6.10133,0 8.544,3.57334 8.544,7.38134 0,2.816 -1.6,4.416 -2.22934,5.056 -1.74933,1.696 -3.82933,2.13333 -6.06933,2.54933 -2.96533,0.58667 -6.528,1.28 -6.528,4.36267 0,1.856 1.38667,4.032 5.952,4.032 5.84533,0 6.112,-4.77867 6.208,-6.432 0.0747,-0.48 0.53333,-0.48 0.65067,-0.48 0.68266,0 0.68266,0.26666 0.68266,1.28 v 5.36533 c 0,0.90667 0,1.26933 -0.576,1.26933 -0.26666,0 -0.37333,0 -1.06666,-0.62933 -0.14934,-0.224 -0.68267,-0.68267 -0.90667,-0.85333 -2.016,1.48266 -4.192,1.48266 -4.992,1.48266 -6.48533,0 -8.50133,-3.552 -8.50133,-6.528 0,-1.856 0.84266,-3.34933 2.28266,-4.52266 1.696,-1.376 3.2,-1.696 7.01867,-2.432 z"
               id="path4858" /><path
               style="fill:#000000;stroke-width:0"
               inkscape:connector-curvature="0"
               d="m 669.52533,436.192 v -3.49867 l 7.808,0.58667 v 1.65333 c -3.72266,0 -4.13866,0.36267 -4.13866,2.96534 v 32.26666 l -7.648,-0.58666 v -1.65334 c 3.712,0 4.128,-0.36266 4.128,-2.976 v -11.46666 c -1.52534,1.89866 -3.808,3.27466 -6.69867,3.27466 l 0.224,-1.16266 c 1.86667,0 4.096,-0.8 5.74933,-3.17867 0.576,-0.90667 0.576,-1.024 0.576,-1.97333 v 0 -10.90134 c 0,-0.94933 0,-1.06666 -0.576,-1.96266 -1.6,-2.54934 -4,-3.712 -6.28266,-3.712 -2.38934,0 -4.29867,1.376 -5.568,3.392 -1.38667,2.18666 -1.55734,5.216 -1.55734,7.392 0,1.96266 0.10667,5.16266 1.65334,7.54133 1.12,1.65333 3.136,3.40267 6.00533,3.40267 l -0.224,1.16266 c -6.26133,0 -11.85067,-5.19466 -11.85067,-12.04266 0,-6.752 5.216,-12.02134 11.27467,-12.02134 3.392,0 5.792,1.80267 7.12533,3.49867 z"
               id="path4860" /><path
               style="fill:#000000;stroke-width:0"
               inkscape:connector-curvature="0"
               d="m 684.8,445.55733 0.0427,1.12 c 0.32,7.91467 4.78933,9.23734 6.60266,9.23734 5.46134,0 5.99467,-7.168 5.99467,-9.23734 H 684.8427 l -0.0427,-1.12 h 14.82667 c 1.17333,0 1.32266,0 1.32266,1.12 0,5.248 -2.86933,10.4 -9.504,10.4 -6.16533,0 -11.072,-5.46133 -11.072,-12.11733 0,-7.11467 5.58934,-12.26667 11.70134,-12.26667 6.48533,0 8.87466,5.89867 8.87466,6.90134 0,0.53333 -0.416,0.65066 -0.68266,0.65066 -0.49067,0 -0.58667,-0.32 -0.704,-0.74666 -1.856,-5.472 -6.63467,-5.472 -7.168,-5.472 -2.66667,0 -4.77867,1.58933 -5.99467,3.552 -1.6,2.54933 -1.6,6.06933 -1.6,7.97866 z"
               id="path4862" /></g><g
             id="g4957"
             transform="translate(0,7.6811212)"><path
               style="fill:#000000;stroke-width:0"
               inkscape:connector-curvature="0"
               d="m 417.32267,379.85067 0.11733,-0.0213 0.13867,-0.0213 0.14933,-0.032 0.17067,-0.0427 0.17066,-0.032 0.192,-0.0533 0.20267,-0.0533 0.21333,-0.064 0.224,-0.064 0.224,-0.0747 0.224,-0.0853 0.23467,-0.0853 0.23467,-0.10666 0.23466,-0.10667 0.23467,-0.11733 0.23467,-0.128 0.23466,-0.13867 0.224,-0.16 0.21334,-0.16 0.21333,-0.17067 0.20267,-0.192 0.192,-0.192 0.18133,-0.21333 0.17067,-0.23467 0.14933,-0.23466 0.0747,-0.128 0.064,-0.128 0.064,-0.128 0.0533,-0.13867 0.0533,-0.13867 0.0533,-0.14933 0.0427,-0.14933 0.032,-0.14934 0.032,-0.16 0.032,-0.16 0.0213,-0.16 0.0107,-0.17066 0.0107,-0.17067 0.0107,-0.18133 c 0,-2.69867 -1.86667,-4.832 -6.00534,-4.832 -4.46933,0 -6.37866,3.02933 -7.40266,7.552 -0.14934,0.68266 -0.192,0.896 -0.72534,0.896 -0.704,0 -0.704,-0.36267 -0.704,-1.33334 v -7.01866 c 0,-0.896 0,-1.26934 0.58667,-1.26934 0.26667,0 0.30933,0.0533 1.33333,1.06667 0.096,0.10667 0.096,0.20267 1.06667,1.22667 2.32533,-2.24 4.72533,-2.29334 5.84533,-2.29334 6.10134,0 8.55467,3.57334 8.55467,7.392 0,2.816 -1.6,4.416 -2.24,5.04534 -1.74933,1.696 -3.82933,2.13333 -6.05867,2.54933 -2.976,0.58667 -6.53866,1.28 -6.53866,4.37333 0,1.84534 1.38666,4.032 5.952,4.032 5.84533,0 6.112,-4.78933 6.21866,-6.432 0.064,-0.49066 0.53334,-0.49066 0.65067,-0.49066 0.68267,0 0.68267,0.26666 0.68267,1.29066 v 5.36534 c 0,0.896 0,1.25866 -0.58667,1.25866 -0.26667,0 -0.36267,0 -1.06667,-0.62933 -0.14933,-0.21333 -0.68266,-0.68267 -0.896,-0.85333 -2.016,1.48266 -4.20266,1.48266 -5.00266,1.48266 -6.48534,0 -8.50134,-3.54133 -8.50134,-6.528 0,-1.856 0.85334,-3.34933 2.28267,-4.52266 1.696,-1.376 3.2,-1.696 7.01867,-2.432 z"
               id="path4864" /><path
               style="fill:#000000;stroke-width:0"
               inkscape:connector-curvature="0"
               d="m 433.16267,381.824 0.0533,1.10933 c 0.30933,7.92534 4.77867,9.23734 6.592,9.23734 5.472,0 6.00533,-7.168 6.00533,-9.23734 H 433.216 L 433.1627,381.824 H 448 c 1.16267,0 1.312,0 1.312,1.10933 0,5.25867 -2.86933,10.4 -9.504,10.4 -6.16533,0 -11.06133,-5.46133 -11.06133,-12.11733 0,-7.11467 5.57866,-12.26667 11.70133,-12.26667 6.48533,0 8.864,5.90934 8.864,6.90134 0,0.53333 -0.416,0.65066 -0.68267,0.65066 -0.48,0 -0.58666,-0.30933 -0.704,-0.74666 -1.84533,-5.472 -6.63466,-5.472 -7.168,-5.472 -2.66666,0 -4.77866,1.58933 -5.99466,3.552 -1.6,2.54933 -1.6,6.06933 -1.6,7.98933 z"
               id="path4866" /><path
               style="fill:#000000;stroke-width:0"
               inkscape:connector-curvature="0"
               d="m 460.21333,406.42133 -7.648,-0.58666 V 404.192 c 3.712,0 4.14934,-0.37333 4.14934,-2.98667 V 373.568 c 0,-2.37867 -0.58667,-2.37867 -4.14934,-2.37867 V 369.536 c 1.74934,0.0533 4.56534,0.17067 5.89867,0.17067 1.33333,0 3.936,-0.11734 5.89867,-0.17067 v 1.65333 c -3.56267,0 -4.14934,0 -4.14934,2.37867 z"
               id="path4868" /><path
               style="fill:#000000;stroke-width:0"
               inkscape:connector-curvature="0"
               d="m 474.93333,406.42133 -7.65866,-0.58666 V 404.192 c 3.72266,0 4.14933,-0.37333 4.14933,-2.98667 V 373.568 c 0,-2.37867 -0.576,-2.37867 -4.14933,-2.37867 V 369.536 c 1.74933,0.0533 4.576,0.17067 5.90933,0.17067 1.33333,0 3.92533,-0.11734 5.89867,-0.17067 v 1.65333 c -3.57334,0 -4.14934,0 -4.14934,2.37867 z"
               id="path4870" /><path
               style="fill:#000000;stroke-width:0"
               inkscape:connector-curvature="0"
               d="m 486.144,381.824 0.0533,1.10933 c 0.32,7.92534 4.77867,9.23734 6.60267,9.23734 5.46133,0 5.99467,-7.168 5.99467,-9.23734 H 486.19733 L 486.144,381.824 h 14.83733 c 1.16267,0 1.312,0 1.312,1.10933 0,5.25867 -2.86933,10.4 -9.49333,10.4 -6.176,0 -11.072,-5.46133 -11.072,-12.11733 0,-7.11467 5.58933,-12.26667 11.70133,-12.26667 6.48534,0 8.864,5.90934 8.864,6.90134 0,0.53333 -0.416,0.65066 -0.68266,0.65066 -0.48,0 -0.58667,-0.30933 -0.69334,-0.74666 -1.856,-5.472 -6.63466,-5.472 -7.168,-5.472 -2.66666,0 -4.78933,1.58933 -6.00533,3.552 -1.6,2.54933 -1.6,6.06933 -1.6,7.98933 z"
               id="path4872" /></g></g>      </g>
    </g>
    <g
       id="g5195"
       transform="translate(462.66836,194.86695)">
      <rect
         style="font-style:normal;font-variant:normal;font-weight:normal;font-stretch:normal;letter-spacing:normal;word-spacing:normal;text-anchor:start;fill:#ffffff;fill-opacity:1;stroke:#000000;stroke-width:2.13333344;stroke-linecap:round;stroke-linejoin:round;stroke-miterlimit:4;stroke-dasharray:none;stroke-dashoffset:1.79999995;stroke-opacity:1"
         id="rect5197"
         width="131.65855"
         height="70.075058"
         x="108.80203"
         y="30.033783" />
      <g
         transform="translate(7.0164273,-310.60743)"
         id="g5199">
        <g
           transform="translate(20.857675,-26.834294)"
           id="g5091">
          <g
             style="font-style:normal;font-variant:normal;font-weight:normal;font-stretch:normal;letter-spacing:normal;word-spacing:normal;text-anchor:start;fill:none;stroke:#000000;stroke-linecap:butt;stroke-linejoin:miter;stroke-miterlimit:10.43299961;stroke-dasharray:none;stroke-dashoffset:0;stroke-opacity:1"
             id="g5093"
             transform="matrix(0.62428571,0,0,-0.62428571,-197.89179,666.17822)"
             xml:space="preserve"
             stroke-miterlimit="10.433"
             font-style="normal"
             font-variant="normal"
             font-weight="normal"
             font-stretch="normal"
             font-size-adjust="none"
             letter-spacing="normal"
             word-spacing="normal"><g
               id="g5298"><path
                 id="path5095"
                 d="m 516.82133,469.408 h -29.184 v -1.64267 h 1.28 c 4.08534,0 4.20267,-0.58666 4.20267,-2.48533 v -27.85067 c 0,-1.92 -0.11733,-2.496 -4.20267,-2.496 h -1.28 V 433.28 c 1.86667,0.17067 6.016,0.17067 8.08534,0.17067 2.18666,0 7.01866,0 8.928,-0.17067 v 1.65333 h -1.76 c -5.056,0 -5.056,0.68267 -5.056,2.54934 v 13.06666 h 4.58666 c 5.09867,0 5.632,-1.70666 5.632,-6.21866 h 1.32267 v 14.08 h -1.32267 c 0,-4.46934 -0.53333,-6.21867 -5.632,-6.21867 h -4.58666 v 13.45067 c 0,1.74933 0.11733,2.12266 2.624,2.12266 h 6.35733 c 7.98933,0 9.30133,-2.96533 10.15467,-10.304 h 1.33333 z"
                 inkscape:connector-curvature="0"
                 style="fill:#000000;stroke-width:0" /><path
                 id="path5097"
                 d="m 541.13067,444.65067 -0.0213,0.62933 -0.0427,0.62933 -0.0747,0.61867 -0.10667,0.608 -0.128,0.59733 -0.16,0.58667 -0.192,0.576 -0.20266,0.56533 -0.24534,0.544 -0.256,0.53334 -0.288,0.52266 -0.30933,0.50134 -0.33067,0.49066 -0.34133,0.46934 -0.37333,0.45866 -0.39467,0.42667 -0.40533,0.416 -0.42667,0.39467 -0.448,0.37333 -0.45867,0.34133 -0.48,0.33067 -0.49066,0.29867 -0.50134,0.27733 -0.52266,0.256 -0.53334,0.224 -0.544,0.192 -0.55466,0.17067 -0.56534,0.13866 -0.576,0.11734 -0.58666,0.0747 -0.58667,0.0533 -0.608,0.0107 -0.0427,-1.16266 c 2.32534,0 4.608,-1.17334 5.99467,-3.456 1.38667,-2.28267 1.38667,-5.36534 1.38667,-7.38134 0,-1.92 0,-4.77866 -1.17334,-7.11466 -1.16266,-2.4 -3.49866,-3.936 -6.16533,-3.936 v 0 c -2.28267,0 -4.61867,1.12 -6.048,3.552 -1.33333,2.34666 -1.33333,5.57866 -1.33333,7.49866 0,2.06934 0,4.93867 1.26933,7.28534 1.45067,2.432 3.936,3.552 6.06933,3.552 l 0.0427,1.16266 c -6.63467,0 -11.79733,-5.78133 -11.79733,-12.42666 0,-6.85867 5.536,-11.95734 11.75466,-11.95734 6.432,0 11.79734,5.20534 11.79734,11.95734 z"
                 inkscape:connector-curvature="0"
                 style="fill:#000000;stroke-width:0" /><path
                 id="path5099"
                 d="m 550.47467,444.864 v 0.40533 l 0.0107,0.384 0.0107,0.384 0.0213,0.37334 0.032,0.36266 0.032,0.36267 0.0427,0.34133 0.0427,0.34134 0.0427,0.33066 0.0533,0.32 0.064,0.30934 0.064,0.30933 0.14933,0.58667 0.16,0.544 0.17067,0.52266 0.20266,0.49067 0.20267,0.45867 0.224,0.42666 0.23467,0.40534 0.24533,0.37333 0.256,0.34133 0.26667,0.32 0.27733,0.29867 0.27733,0.27733 0.288,0.24534 0.29867,0.224 0.29867,0.20266 0.29866,0.17067 0.29867,0.16 0.29867,0.13867 0.30933,0.128 0.29867,0.096 0.29866,0.0853 0.288,0.064 0.288,0.0533 0.288,0.032 0.27734,0.0213 0.26666,0.0107 c 0.46934,0 3.81867,-0.0533 5.68534,-1.97333 -2.18667,-0.16 -2.50667,-1.74933 -2.50667,-2.44267 0,-1.38666 0.96,-2.45333 2.45333,-2.45333 1.36534,0 2.432,0.91733 2.432,2.496 0,3.616 -4.032,5.68533 -8.128,5.68533 -6.63466,0 -11.53066,-5.728 -11.53066,-12.32 0,-6.79466 5.25866,-12.064 11.43466,-12.064 7.11467,0 8.81067,6.38934 8.81067,6.90134 0,0.53333 -0.53333,0.53333 -0.68267,0.53333 -0.48,0 -0.58666,-0.20267 -0.704,-0.53333 -1.52533,-4.928 -4.98133,-5.568 -6.944,-5.568 -2.816,0 -7.49866,2.28266 -7.49866,10.83733 z"
                 inkscape:connector-curvature="0"
                 style="fill:#000000;stroke-width:0" /><path
                 id="path5101"
                 d="m 588.58667,437.48267 v -4.78934 l 7.648,0.58667 v 1.65333 c -3.712,0 -4.14934,0.36267 -4.14934,2.96534 v 18.85866 l -7.81866,-0.576 V 454.528 c 3.73333,0 4.16,-0.36267 4.16,-2.96533 v -9.472 c 0,-4.608 -2.56,-8.224 -6.44267,-8.224 -4.448,0 -4.66133,2.496 -4.66133,5.25866 v 17.632 l -7.81867,-0.576 V 454.528 c 4.14933,0 4.14933,-0.14933 4.14933,-4.88533 v -7.968 c 0,-4.14934 0,-8.98134 8.064,-8.98134 2.98667,0 5.32267,1.48267 6.86934,4.78934 z"
                 inkscape:connector-curvature="0"
                 style="fill:#000000;stroke-width:0" /><path
                 id="path5103"
                 d="m 608.42667,443.59467 0.11733,-0.0213 0.128,-0.0213 0.16,-0.032 0.16,-0.0427 0.18133,-0.0427 0.192,-0.0427 0.20267,-0.0533 0.21333,-0.064 0.21334,-0.064 0.224,-0.0747 0.23466,-0.0853 0.23467,-0.0853 0.23467,-0.10666 0.23466,-0.10667 0.23467,-0.11733 0.23467,-0.128 0.224,-0.14934 0.23466,-0.14933 0.21334,-0.16 0.21333,-0.17067 0.20267,-0.192 0.192,-0.20266 0.18133,-0.21334 0.17067,-0.224 0.14933,-0.23466 0.064,-0.128 0.0747,-0.128 0.064,-0.13867 0.0533,-0.128 0.0533,-0.14933 L 613.76,440 l 0.0427,-0.14933 0.0427,-0.14934 0.032,-0.16 0.032,-0.16 0.0213,-0.17066 0.0107,-0.16 0.0107,-0.18134 v -0.17066 c 0,-2.69867 -1.86667,-4.832 -5.99467,-4.832 -4.46933,0 -6.38933,3.02933 -7.40266,7.54133 -0.14934,0.68267 -0.20267,0.90667 -0.736,0.90667 -0.69334,0 -0.69334,-0.37334 -0.69334,-1.33334 v -7.01866 c 0,-0.896 0,-1.26934 0.576,-1.26934 0.26667,0 0.32,0.0533 1.33334,1.06667 0.10666,0.10667 0.10666,0.20267 1.06666,1.216 2.336,-2.22933 4.736,-2.28267 5.856,-2.28267 6.10134,0 8.544,3.57334 8.544,7.38134 0,2.816 -1.6,4.416 -2.22933,5.056 -1.74933,1.696 -3.84,2.13333 -6.06933,2.54933 -2.96534,0.58667 -6.528,1.28 -6.528,4.36267 0,1.856 1.376,4.032 5.952,4.032 5.84533,0 6.112,-4.77867 6.208,-6.432 0.064,-0.48 0.53333,-0.48 0.65066,-0.48 0.68267,0 0.68267,0.26666 0.68267,1.28 v 5.36533 c 0,0.90667 0,1.26933 -0.576,1.26933 -0.26667,0 -0.37333,0 -1.06667,-0.62933 -0.16,-0.224 -0.69333,-0.68267 -0.90666,-0.85333 -2.016,1.48266 -4.192,1.48266 -4.992,1.48266 -6.48534,0 -8.50134,-3.552 -8.50134,-6.528 0,-1.856 0.84267,-3.34933 2.28267,-4.52266 1.696,-1.376 3.2,-1.696 7.01867,-2.432 z"
                 inkscape:connector-curvature="0"
                 style="fill:#000000;stroke-width:0" /></g><g
               transform="translate(55.509333,6.3366017)"
               id="g5305"><path
                 id="path5105"
                 d="m 415.66933,393.024 -7.43466,-0.58667 V 390.784 c 3.456,0 3.936,-0.30933 3.936,-2.912 v -14.304 c 0,-2.37867 -0.58667,-2.37867 -4.14934,-2.37867 V 369.536 c 1.696,0.0533 4.56534,0.17067 5.84534,0.17067 1.86666,0 3.72266,-0.11734 5.536,-0.17067 v 1.65333 c -3.52,0 -3.73334,0.26667 -3.73334,2.336 z"
                 inkscape:connector-curvature="0"
                 style="fill:#000000;stroke-width:0" /><path
                 id="path5107"
                 d="m 415.88267,402.272 v 0.16 l -0.0107,0.14933 -0.0213,0.14934 -0.0213,0.14933 -0.032,0.13867 -0.0427,0.13866 -0.0427,0.13867 -0.0533,0.128 -0.064,0.128 -0.064,0.128 -0.064,0.11733 -0.0747,0.11734 -0.0853,0.10666 -0.0853,0.10667 -0.0853,0.096 -0.096,0.096 -0.10667,0.0853 -0.096,0.0853 -0.10666,0.0853 -0.11734,0.064 -0.11733,0.0747 -0.11733,0.064 -0.11734,0.0533 -0.128,0.0533 -0.128,0.0427 -0.128,0.0427 -0.128,0.0427 -0.128,0.0213 -0.13866,0.0213 -0.13867,0.0213 -0.13867,0.0107 h -0.13866 c -1.64267,0 -2.816,-1.42933 -2.816,-2.816 0,-1.42933 1.17333,-2.816 2.816,-2.816 1.48266,0 2.816,1.12 2.816,2.816 z"
                 inkscape:connector-curvature="0"
                 style="fill:#000000;stroke-width:0" /><path
                 id="path5109"
                 d="M 426.83733,387.81867 V 373.568 c 0,-2.37867 -0.58666,-2.37867 -4.14933,-2.37867 V 369.536 c 1.86667,0.0533 4.56533,0.17067 5.99467,0.17067 1.38666,0 4.16,-0.11734 5.952,-0.17067 v 1.65333 c -3.552,0 -4.128,0 -4.128,2.37867 v 9.78133 c 0,5.536 3.76533,8.50134 7.168,8.50134 3.34933,0 3.92533,-2.85867 3.92533,-5.89867 v -12.384 c 0,-2.37867 -0.576,-2.37867 -4.14933,-2.37867 V 369.536 c 1.86666,0.0533 4.58666,0.17067 6.016,0.17067 1.38666,0 4.13866,-0.11734 5.952,-0.17067 v 1.65333 c -2.76267,0 -4.096,0 -4.14934,1.6 v 10.144 c 0,4.576 0,6.21867 -1.65333,8.11734 -0.72533,0.91733 -2.496,1.97333 -5.55733,1.97333 -3.88267,0 -6.38934,-2.28267 -7.872,-5.568 v 5.568 L 422.688,392.43733 V 390.784 c 3.712,0 4.14933,-0.36267 4.14933,-2.96533 z"
                 inkscape:connector-curvature="0"
                 style="fill:#000000;stroke-width:0" /><path
                 id="path5111"
                 d="m 461.6,379.85067 0.128,-0.0213 0.128,-0.0213 0.14933,-0.032 0.17067,-0.0427 0.18133,-0.032 0.192,-0.0533 0.20267,-0.0533 0.21333,-0.064 0.21334,-0.064 0.224,-0.0747 0.23466,-0.0853 0.23467,-0.0853 0.23467,-0.10666 0.23466,-0.10667 0.23467,-0.11733 0.23467,-0.128 0.224,-0.13867 0.224,-0.16 0.224,-0.16 0.21333,-0.17067 0.20267,-0.192 0.192,-0.192 0.18133,-0.21333 0.16,-0.23467 0.16,-0.23466 0.064,-0.128 0.0747,-0.128 0.0533,-0.128 0.064,-0.13867 0.0533,-0.13867 0.0427,-0.14933 0.0427,-0.14933 0.0427,-0.14934 0.032,-0.16 0.0213,-0.16 0.0213,-0.16 0.0213,-0.17066 0.0107,-0.17067 v -0.18133 c 0,-2.69867 -1.86667,-4.832 -5.99467,-4.832 -4.46933,0 -6.38933,3.02933 -7.40266,7.552 -0.14934,0.68266 -0.20267,0.896 -0.736,0.896 -0.69334,0 -0.69334,-0.36267 -0.69334,-1.33334 v -7.01866 c 0,-0.896 0,-1.26934 0.576,-1.26934 0.26667,0 0.32,0.0533 1.33334,1.06667 0.10666,0.10667 0.10666,0.20267 1.06666,1.22667 2.336,-2.24 4.736,-2.29334 5.856,-2.29334 6.10134,0 8.544,3.57334 8.544,7.392 0,2.816 -1.6,4.416 -2.22933,5.04534 -1.74933,1.696 -3.84,2.13333 -6.06933,2.54933 -2.96534,0.58667 -6.528,1.28 -6.528,4.37333 0,1.84534 1.376,4.032 5.94133,4.032 5.856,0 6.12267,-4.78933 6.21867,-6.432 0.064,-0.49066 0.53333,-0.49066 0.65066,-0.49066 0.68267,0 0.68267,0.26666 0.68267,1.29066 v 5.36534 c 0,0.896 0,1.25866 -0.576,1.25866 -0.26667,0 -0.37333,0 -1.06667,-0.62933 -0.16,-0.21333 -0.69333,-0.68267 -0.90666,-0.85333 -2.016,1.48266 -4.20267,1.48266 -5.00267,1.48266 -6.47467,0 -8.49067,-3.54133 -8.49067,-6.528 0,-1.856 0.84267,-3.34933 2.28267,-4.52266 1.696,-1.376 3.2,-1.696 7.008,-2.432 z"
                 inkscape:connector-curvature="0"
                 style="fill:#000000;stroke-width:0" /><path
                 id="path5113"
                 d="m 480.74667,390.784 h 7.59466 v 1.65333 h -7.59466 v 9.78134 h -1.33334 c -0.0533,-4.352 -1.65333,-10.048 -6.848,-10.25067 v -1.184 h 4.512 v -14.66667 c 0,-6.528 4.93867,-7.168 6.848,-7.168 3.76534,0 5.26934,3.776 5.26934,7.168 v 3.04 h -1.33334 v -2.92266 c 0,-3.92534 -1.6,-5.952 -3.56266,-5.952 -3.552,0 -3.552,4.84266 -3.552,5.73866 z"
                 inkscape:connector-curvature="0"
                 style="fill:#000000;stroke-width:0" /><path
                 id="path5115"
                 d="m 509.84533,373.568 0.032,-0.192 0.032,-0.20267 0.032,-0.20266 0.0427,-0.192 0.0533,-0.20267 0.064,-0.192 0.064,-0.192 0.0747,-0.192 0.0747,-0.192 0.0853,-0.18133 0.096,-0.18134 0.10667,-0.18133 0.10666,-0.17067 0.10667,-0.17066 0.128,-0.16 0.128,-0.16 0.128,-0.14934 0.13867,-0.14933 0.14933,-0.13867 0.16,-0.128 0.16,-0.11733 0.16,-0.11733 0.18133,-0.10667 0.18134,-0.096 0.18133,-0.0853 0.192,-0.0747 0.20267,-0.064 0.20266,-0.0533 0.21334,-0.0427 0.224,-0.032 0.224,-0.0213 0.23466,-0.0107 c 1.09867,0 4.34134,0.75733 4.34134,5.056 v 2.96533 h -1.33334 V 374.272 c 0,-3.08267 -1.312,-3.40267 -1.90933,-3.40267 -1.74933,0 -1.97333,2.38934 -1.97333,2.656 v 10.624 c 0,2.24 0,4.30934 -1.89867,6.272 -2.08,2.06934 -4.736,2.912 -7.28533,2.912 -4.36267,0 -8.032,-2.47466 -8.032,-5.99466 0,-1.58934 1.06666,-2.496 2.45333,-2.496 1.48267,0 2.45333,1.06666 2.45333,2.44266 0,0.64 -0.26666,2.38934 -2.72,2.45334 1.42934,1.84533 4.032,2.432 5.728,2.432 2.624,0 5.64267,-2.06934 5.64267,-6.79467 v -1.97333 -1.12 -5.312 c 0,-5.04534 -3.81867,-6.848 -6.21867,-6.848 -2.60266,0 -4.78933,1.86666 -4.78933,4.512 0,2.92266 2.24,7.33866 11.008,7.648 v 0 1.12 c -2.70933,-0.14934 -6.42133,-0.32 -9.77067,-1.92 -3.98933,-1.792 -5.32266,-4.56534 -5.32266,-6.89067 0,-4.30933 5.152,-5.64267 8.50133,-5.64267 3.52,0 5.952,2.12267 6.96533,4.61867 z"
                 inkscape:connector-curvature="0"
                 style="fill:#000000;stroke-width:0" /><path
                 id="path5117"
                 d="m 527.904,389.568 v 16.85333 l -7.648,-0.58666 V 404.192 c 3.712,0 4.14933,-0.37333 4.14933,-2.98667 V 369.536 h 1.33334 c 0.0533,0.0533 0.46933,0.8 1.89866,3.30667 0.8,-1.23734 3.02934,-3.89334 6.96534,-3.89334 l -0.21334,1.17334 c -2.38933,0 -4.29866,1.28 -5.568,3.25333 -0.74666,1.10933 -0.74666,1.25867 -0.74666,2.208 v 0 10.95467 c 0,1.01333 0,1.06666 0.576,1.92 2.06933,2.976 5.00266,3.392 6.272,3.392 2.4,0 4.32,-1.376 5.57866,-3.392 1.38667,-2.18667 1.55734,-5.20534 1.55734,-7.392 0,-1.96267 -0.11734,-5.14134 -1.65334,-7.54134 -1.12,-1.65333 -3.136,-3.40266 -6.016,-3.40266 l 0.21334,-1.17334 c 6.336,0 11.85066,5.20534 11.85066,12.07467 0,6.752 -5.19466,12 -11.264,12 -4.13866,0 -6.432,-2.50667 -7.28533,-3.456 z"
                 inkscape:connector-curvature="0"
                 style="fill:#000000;stroke-width:0" /><path
                 id="path5119"
                 d="m 557.73867,406.42133 -7.648,-0.58666 V 404.192 c 3.712,0 4.14933,-0.37333 4.14933,-2.98667 V 373.568 c 0,-2.37867 -0.58667,-2.37867 -4.14933,-2.37867 V 369.536 c 1.74933,0.0533 4.56533,0.17067 5.89866,0.17067 1.33334,0 3.936,-0.11734 5.89867,-0.17067 v 1.65333 c -3.56267,0 -4.14933,0 -4.14933,2.37867 z"
                 inkscape:connector-curvature="0"
                 style="fill:#000000;stroke-width:0" /><path
                 id="path5121"
                 d="m 568.96,381.824 0.0427,1.10933 c 0.32,7.92534 4.78933,9.23734 6.60266,9.23734 5.46134,0 5.99467,-7.168 5.99467,-9.23734 H 569.00267 L 568.96,381.824 h 14.82667 c 1.17333,0 1.312,0 1.312,1.10933 0,5.25867 -2.85867,10.4 -9.49334,10.4 -6.16533,0 -11.072,-5.46133 -11.072,-12.11733 0,-7.11467 5.58934,-12.26667 11.70134,-12.26667 6.48533,0 8.864,5.90934 8.864,6.90134 0,0.53333 -0.40534,0.65066 -0.672,0.65066 -0.49067,0 -0.58667,-0.30933 -0.704,-0.74666 -1.856,-5.472 -6.63467,-5.472 -7.168,-5.472 -2.66667,0 -4.78934,1.58933 -5.99467,3.552 -1.6,2.54933 -1.6,6.06933 -1.6,7.98933 z"
                 inkscape:connector-curvature="0"
                 style="fill:#000000;stroke-width:0" /></g></g>        </g>
      </g>
    </g>
    <g
       transform="translate(463.66955,394.91994)"
       id="g5316">
      <rect
         y="30.033783"
         x="131.68945"
         height="70.075058"
         width="111.31419"
         id="rect5318"
         style="font-style:normal;font-variant:normal;font-weight:normal;font-stretch:normal;letter-spacing:normal;word-spacing:normal;text-anchor:start;fill:#ffffff;fill-opacity:1;stroke:#000000;stroke-width:2.13333344;stroke-linecap:round;stroke-linejoin:round;stroke-miterlimit:4;stroke-dasharray:none;stroke-dashoffset:1.79999995;stroke-opacity:1" />
      <g
         id="g5320"
         transform="translate(5.9074789,-310.60743)">
        <g
           id="g5322"
           transform="translate(20.857675,-26.834294)">
          <g
             word-spacing="normal"
             letter-spacing="normal"
             font-size-adjust="none"
             font-stretch="normal"
             font-weight="normal"
             font-variant="normal"
             font-style="normal"
             stroke-miterlimit="10.433"
             xml:space="preserve"
             transform="matrix(0.62428571,0,0,-0.62428571,-197.89179,666.17822)"
             id="g5324"
             style="font-style:normal;font-variant:normal;font-weight:normal;font-stretch:normal;letter-spacing:normal;word-spacing:normal;text-anchor:start;fill:none;stroke:#000000;stroke-linecap:butt;stroke-linejoin:miter;stroke-miterlimit:10.43299961;stroke-dasharray:none;stroke-dashoffset:0;stroke-opacity:1"><g
               transform="translate(22.144)"
               id="g5326"><path
                 style="fill:#000000;stroke-width:0"
                 inkscape:connector-curvature="0"
                 d="m 516.82133,469.408 h -29.184 v -1.64267 h 1.28 c 4.08534,0 4.20267,-0.58666 4.20267,-2.48533 v -27.85067 c 0,-1.92 -0.11733,-2.496 -4.20267,-2.496 h -1.28 V 433.28 c 1.86667,0.17067 6.016,0.17067 8.08534,0.17067 2.18666,0 7.01866,0 8.928,-0.17067 v 1.65333 h -1.76 c -5.056,0 -5.056,0.68267 -5.056,2.54934 v 13.06666 h 4.58666 c 5.09867,0 5.632,-1.70666 5.632,-6.21866 h 1.32267 v 14.08 h -1.32267 c 0,-4.46934 -0.53333,-6.21867 -5.632,-6.21867 h -4.58666 v 13.45067 c 0,1.74933 0.11733,2.12266 2.624,2.12266 h 6.35733 c 7.98933,0 9.30133,-2.96533 10.15467,-10.304 h 1.33333 z"
                 id="path5328" /><path
                 style="fill:#000000;stroke-width:0"
                 inkscape:connector-curvature="0"
                 d="m 541.13067,444.65067 -0.0213,0.62933 -0.0427,0.62933 -0.0747,0.61867 -0.10667,0.608 -0.128,0.59733 -0.16,0.58667 -0.192,0.576 -0.20266,0.56533 -0.24534,0.544 -0.256,0.53334 -0.288,0.52266 -0.30933,0.50134 -0.33067,0.49066 -0.34133,0.46934 -0.37333,0.45866 -0.39467,0.42667 -0.40533,0.416 -0.42667,0.39467 -0.448,0.37333 -0.45867,0.34133 -0.48,0.33067 -0.49066,0.29867 -0.50134,0.27733 -0.52266,0.256 -0.53334,0.224 -0.544,0.192 -0.55466,0.17067 -0.56534,0.13866 -0.576,0.11734 -0.58666,0.0747 -0.58667,0.0533 -0.608,0.0107 -0.0427,-1.16266 c 2.32534,0 4.608,-1.17334 5.99467,-3.456 1.38667,-2.28267 1.38667,-5.36534 1.38667,-7.38134 0,-1.92 0,-4.77866 -1.17334,-7.11466 -1.16266,-2.4 -3.49866,-3.936 -6.16533,-3.936 v 0 c -2.28267,0 -4.61867,1.12 -6.048,3.552 -1.33333,2.34666 -1.33333,5.57866 -1.33333,7.49866 0,2.06934 0,4.93867 1.26933,7.28534 1.45067,2.432 3.936,3.552 6.06933,3.552 l 0.0427,1.16266 c -6.63467,0 -11.79733,-5.78133 -11.79733,-12.42666 0,-6.85867 5.536,-11.95734 11.75466,-11.95734 6.432,0 11.79734,5.20534 11.79734,11.95734 z"
                 id="path5330" /><path
                 style="fill:#000000;stroke-width:0"
                 inkscape:connector-curvature="0"
                 d="m 550.47467,444.864 v 0.40533 l 0.0107,0.384 0.0107,0.384 0.0213,0.37334 0.032,0.36266 0.032,0.36267 0.0427,0.34133 0.0427,0.34134 0.0427,0.33066 0.0533,0.32 0.064,0.30934 0.064,0.30933 0.14933,0.58667 0.16,0.544 0.17067,0.52266 0.20266,0.49067 0.20267,0.45867 0.224,0.42666 0.23467,0.40534 0.24533,0.37333 0.256,0.34133 0.26667,0.32 0.27733,0.29867 0.27733,0.27733 0.288,0.24534 0.29867,0.224 0.29867,0.20266 0.29866,0.17067 0.29867,0.16 0.29867,0.13867 0.30933,0.128 0.29867,0.096 0.29866,0.0853 0.288,0.064 0.288,0.0533 0.288,0.032 0.27734,0.0213 0.26666,0.0107 c 0.46934,0 3.81867,-0.0533 5.68534,-1.97333 -2.18667,-0.16 -2.50667,-1.74933 -2.50667,-2.44267 0,-1.38666 0.96,-2.45333 2.45333,-2.45333 1.36534,0 2.432,0.91733 2.432,2.496 0,3.616 -4.032,5.68533 -8.128,5.68533 -6.63466,0 -11.53066,-5.728 -11.53066,-12.32 0,-6.79466 5.25866,-12.064 11.43466,-12.064 7.11467,0 8.81067,6.38934 8.81067,6.90134 0,0.53333 -0.53333,0.53333 -0.68267,0.53333 -0.48,0 -0.58666,-0.20267 -0.704,-0.53333 -1.52533,-4.928 -4.98133,-5.568 -6.944,-5.568 -2.816,0 -7.49866,2.28266 -7.49866,10.83733 z"
                 id="path5332" /><path
                 style="fill:#000000;stroke-width:0"
                 inkscape:connector-curvature="0"
                 d="m 588.58667,437.48267 v -4.78934 l 7.648,0.58667 v 1.65333 c -3.712,0 -4.14934,0.36267 -4.14934,2.96534 v 18.85866 l -7.81866,-0.576 V 454.528 c 3.73333,0 4.16,-0.36267 4.16,-2.96533 v -9.472 c 0,-4.608 -2.56,-8.224 -6.44267,-8.224 -4.448,0 -4.66133,2.496 -4.66133,5.25866 v 17.632 l -7.81867,-0.576 V 454.528 c 4.14933,0 4.14933,-0.14933 4.14933,-4.88533 v -7.968 c 0,-4.14934 0,-8.98134 8.064,-8.98134 2.98667,0 5.32267,1.48267 6.86934,4.78934 z"
                 id="path5334" /><path
                 style="fill:#000000;stroke-width:0"
                 inkscape:connector-curvature="0"
                 d="m 608.42667,443.59467 0.11733,-0.0213 0.128,-0.0213 0.16,-0.032 0.16,-0.0427 0.18133,-0.0427 0.192,-0.0427 0.20267,-0.0533 0.21333,-0.064 0.21334,-0.064 0.224,-0.0747 0.23466,-0.0853 0.23467,-0.0853 0.23467,-0.10666 0.23466,-0.10667 0.23467,-0.11733 0.23467,-0.128 0.224,-0.14934 0.23466,-0.14933 0.21334,-0.16 0.21333,-0.17067 0.20267,-0.192 0.192,-0.20266 0.18133,-0.21334 0.17067,-0.224 0.14933,-0.23466 0.064,-0.128 0.0747,-0.128 0.064,-0.13867 0.0533,-0.128 0.0533,-0.14933 L 613.76,440 l 0.0427,-0.14933 0.0427,-0.14934 0.032,-0.16 0.032,-0.16 0.0213,-0.17066 0.0107,-0.16 0.0107,-0.18134 v -0.17066 c 0,-2.69867 -1.86667,-4.832 -5.99467,-4.832 -4.46933,0 -6.38933,3.02933 -7.40266,7.54133 -0.14934,0.68267 -0.20267,0.90667 -0.736,0.90667 -0.69334,0 -0.69334,-0.37334 -0.69334,-1.33334 v -7.01866 c 0,-0.896 0,-1.26934 0.576,-1.26934 0.26667,0 0.32,0.0533 1.33334,1.06667 0.10666,0.10667 0.10666,0.20267 1.06666,1.216 2.336,-2.22933 4.736,-2.28267 5.856,-2.28267 6.10134,0 8.544,3.57334 8.544,7.38134 0,2.816 -1.6,4.416 -2.22933,5.056 -1.74933,1.696 -3.84,2.13333 -6.06933,2.54933 -2.96534,0.58667 -6.528,1.28 -6.528,4.36267 0,1.856 1.376,4.032 5.952,4.032 5.84533,0 6.112,-4.77867 6.208,-6.432 0.064,-0.48 0.53333,-0.48 0.65066,-0.48 0.68267,0 0.68267,0.26666 0.68267,1.28 v 5.36533 c 0,0.90667 0,1.26933 -0.576,1.26933 -0.26667,0 -0.37333,0 -1.06667,-0.62933 -0.16,-0.224 -0.69333,-0.68267 -0.90666,-0.85333 -2.016,1.48266 -4.192,1.48266 -4.992,1.48266 -6.48534,0 -8.50134,-3.552 -8.50134,-6.528 0,-1.856 0.84267,-3.34933 2.28267,-4.52266 1.696,-1.376 3.2,-1.696 7.01867,-2.432 z"
                 id="path5336" /></g><g
               id="g5338"
               transform="translate(55.509333,6.3366017)"><path
                 style="fill:#000000;stroke-width:0"
                 inkscape:connector-curvature="0"
                 d="m 461.6,379.85067 0.128,-0.0213 0.128,-0.0213 0.14933,-0.032 0.17067,-0.0427 0.18133,-0.032 0.192,-0.0533 0.20267,-0.0533 0.21333,-0.064 0.21334,-0.064 0.224,-0.0747 0.23466,-0.0853 0.23467,-0.0853 0.23467,-0.10666 0.23466,-0.10667 0.23467,-0.11733 0.23467,-0.128 0.224,-0.13867 0.224,-0.16 0.224,-0.16 0.21333,-0.17067 0.20267,-0.192 0.192,-0.192 0.18133,-0.21333 0.16,-0.23467 0.16,-0.23466 0.064,-0.128 0.0747,-0.128 0.0533,-0.128 0.064,-0.13867 0.0533,-0.13867 0.0427,-0.14933 0.0427,-0.14933 0.0427,-0.14934 0.032,-0.16 0.0213,-0.16 0.0213,-0.16 0.0213,-0.17066 0.0107,-0.17067 v -0.18133 c 0,-2.69867 -1.86667,-4.832 -5.99467,-4.832 -4.46933,0 -6.38933,3.02933 -7.40266,7.552 -0.14934,0.68266 -0.20267,0.896 -0.736,0.896 -0.69334,0 -0.69334,-0.36267 -0.69334,-1.33334 v -7.01866 c 0,-0.896 0,-1.26934 0.576,-1.26934 0.26667,0 0.32,0.0533 1.33334,1.06667 0.10666,0.10667 0.10666,0.20267 1.06666,1.22667 2.336,-2.24 4.736,-2.29334 5.856,-2.29334 6.10134,0 8.544,3.57334 8.544,7.392 0,2.816 -1.6,4.416 -2.22933,5.04534 -1.74933,1.696 -3.84,2.13333 -6.06933,2.54933 -2.96534,0.58667 -6.528,1.28 -6.528,4.37333 0,1.84534 1.376,4.032 5.94133,4.032 5.856,0 6.12267,-4.78933 6.21867,-6.432 0.064,-0.49066 0.53333,-0.49066 0.65066,-0.49066 0.68267,0 0.68267,0.26666 0.68267,1.29066 v 5.36534 c 0,0.896 0,1.25866 -0.576,1.25866 -0.26667,0 -0.37333,0 -1.06667,-0.62933 -0.16,-0.21333 -0.69333,-0.68267 -0.90666,-0.85333 -2.016,1.48266 -4.20267,1.48266 -5.00267,1.48266 -6.47467,0 -8.49067,-3.54133 -8.49067,-6.528 0,-1.856 0.84267,-3.34933 2.28267,-4.52266 1.696,-1.376 3.2,-1.696 7.008,-2.432 z"
                 id="path5346" /><path
                 style="fill:#000000;stroke-width:0"
                 inkscape:connector-curvature="0"
                 d="m 480.74667,390.784 h 7.59466 v 1.65333 h -7.59466 v 9.78134 h -1.33334 c -0.0533,-4.352 -1.65333,-10.048 -6.848,-10.25067 v -1.184 h 4.512 v -14.66667 c 0,-6.528 4.93867,-7.168 6.848,-7.168 3.76534,0 5.26934,3.776 5.26934,7.168 v 3.04 h -1.33334 v -2.92266 c 0,-3.92534 -1.6,-5.952 -3.56266,-5.952 -3.552,0 -3.552,4.84266 -3.552,5.73866 z"
                 id="path5348" /><path
                 style="fill:#000000;stroke-width:0"
                 inkscape:connector-curvature="0"
                 d="m 509.84533,373.568 0.032,-0.192 0.032,-0.20267 0.032,-0.20266 0.0427,-0.192 0.0533,-0.20267 0.064,-0.192 0.064,-0.192 0.0747,-0.192 0.0747,-0.192 0.0853,-0.18133 0.096,-0.18134 0.10667,-0.18133 0.10666,-0.17067 0.10667,-0.17066 0.128,-0.16 0.128,-0.16 0.128,-0.14934 0.13867,-0.14933 0.14933,-0.13867 0.16,-0.128 0.16,-0.11733 0.16,-0.11733 0.18133,-0.10667 0.18134,-0.096 0.18133,-0.0853 0.192,-0.0747 0.20267,-0.064 0.20266,-0.0533 0.21334,-0.0427 0.224,-0.032 0.224,-0.0213 0.23466,-0.0107 c 1.09867,0 4.34134,0.75733 4.34134,5.056 v 2.96533 h -1.33334 V 374.272 c 0,-3.08267 -1.312,-3.40267 -1.90933,-3.40267 -1.74933,0 -1.97333,2.38934 -1.97333,2.656 v 10.624 c 0,2.24 0,4.30934 -1.89867,6.272 -2.08,2.06934 -4.736,2.912 -7.28533,2.912 -4.36267,0 -8.032,-2.47466 -8.032,-5.99466 0,-1.58934 1.06666,-2.496 2.45333,-2.496 1.48267,0 2.45333,1.06666 2.45333,2.44266 0,0.64 -0.26666,2.38934 -2.72,2.45334 1.42934,1.84533 4.032,2.432 5.728,2.432 2.624,0 5.64267,-2.06934 5.64267,-6.79467 v -1.97333 -1.12 -5.312 c 0,-5.04534 -3.81867,-6.848 -6.21867,-6.848 -2.60266,0 -4.78933,1.86666 -4.78933,4.512 0,2.92266 2.24,7.33866 11.008,7.648 v 0 1.12 c -2.70933,-0.14934 -6.42133,-0.32 -9.77067,-1.92 -3.98933,-1.792 -5.32266,-4.56534 -5.32266,-6.89067 0,-4.30933 5.152,-5.64267 8.50133,-5.64267 3.52,0 5.952,2.12267 6.96533,4.61867 z"
                 id="path5350" /><path
                 style="fill:#000000;stroke-width:0"
                 inkscape:connector-curvature="0"
                 d="m 527.904,389.568 v 16.85333 l -7.648,-0.58666 V 404.192 c 3.712,0 4.14933,-0.37333 4.14933,-2.98667 V 369.536 h 1.33334 c 0.0533,0.0533 0.46933,0.8 1.89866,3.30667 0.8,-1.23734 3.02934,-3.89334 6.96534,-3.89334 l -0.21334,1.17334 c -2.38933,0 -4.29866,1.28 -5.568,3.25333 -0.74666,1.10933 -0.74666,1.25867 -0.74666,2.208 v 0 10.95467 c 0,1.01333 0,1.06666 0.576,1.92 2.06933,2.976 5.00266,3.392 6.272,3.392 2.4,0 4.32,-1.376 5.57866,-3.392 1.38667,-2.18667 1.55734,-5.20534 1.55734,-7.392 0,-1.96267 -0.11734,-5.14134 -1.65334,-7.54134 -1.12,-1.65333 -3.136,-3.40266 -6.016,-3.40266 l 0.21334,-1.17334 c 6.336,0 11.85066,5.20534 11.85066,12.07467 0,6.752 -5.19466,12 -11.264,12 -4.13866,0 -6.432,-2.50667 -7.28533,-3.456 z"
                 id="path5352" /><path
                 style="fill:#000000;stroke-width:0"
                 inkscape:connector-curvature="0"
                 d="m 557.73867,406.42133 -7.648,-0.58666 V 404.192 c 3.712,0 4.14933,-0.37333 4.14933,-2.98667 V 373.568 c 0,-2.37867 -0.58667,-2.37867 -4.14933,-2.37867 V 369.536 c 1.74933,0.0533 4.56533,0.17067 5.89866,0.17067 1.33334,0 3.936,-0.11734 5.89867,-0.17067 v 1.65333 c -3.56267,0 -4.14933,0 -4.14933,2.37867 z"
                 id="path5354" /><path
                 style="fill:#000000;stroke-width:0"
                 inkscape:connector-curvature="0"
                 d="m 568.96,381.824 0.0427,1.10933 c 0.32,7.92534 4.78933,9.23734 6.60266,9.23734 5.46134,0 5.99467,-7.168 5.99467,-9.23734 H 569.00267 L 568.96,381.824 h 14.82667 c 1.17333,0 1.312,0 1.312,1.10933 0,5.25867 -2.85867,10.4 -9.49334,10.4 -6.16533,0 -11.072,-5.46133 -11.072,-12.11733 0,-7.11467 5.58934,-12.26667 11.70134,-12.26667 6.48533,0 8.864,5.90934 8.864,6.90134 0,0.53333 -0.40534,0.65066 -0.672,0.65066 -0.49067,0 -0.58667,-0.30933 -0.704,-0.74666 -1.856,-5.472 -6.63467,-5.472 -7.168,-5.472 -2.66667,0 -4.78934,1.58933 -5.99467,3.552 -1.6,2.54933 -1.6,6.06933 -1.6,7.98933 z"
                 id="path5356" /></g></g>        </g>
      </g>
    </g>
  </g>
</svg>
