<?xml version="1.0" encoding="UTF-8" standalone="no"?>
<!-- Created with Inkscape (http://www.inkscape.org/) -->

<svg
   xmlns:dc="http://purl.org/dc/elements/1.1/"
   xmlns:cc="http://creativecommons.org/ns#"
   xmlns:rdf="http://www.w3.org/1999/02/22-rdf-syntax-ns#"
   xmlns:svg="http://www.w3.org/2000/svg"
   xmlns="http://www.w3.org/2000/svg"
   xmlns:xlink="http://www.w3.org/1999/xlink"
   xmlns:sodipodi="http://sodipodi.sourceforge.net/DTD/sodipodi-0.dtd"
   xmlns:inkscape="http://www.inkscape.org/namespaces/inkscape"
   id="svg2"
   height="200"
   width="200"
   version="1.1"
   viewBox="0 0 200.00001 199.99997"
   sodipodi:docname="cnrs.svg"
   inkscape:version="0.92.1 r">
  <sodipodi:namedview
     pagecolor="#ffffff"
     bordercolor="#666666"
     borderopacity="1"
     objecttolerance="10"
     gridtolerance="10"
     guidetolerance="10"
     inkscape:pageopacity="0"
     inkscape:pageshadow="2"
     inkscape:window-width="1276"
     inkscape:window-height="985"
     id="namedview29"
     showgrid="false"
     inkscape:zoom="1.18"
     inkscape:cx="159.39293"
     inkscape:cy="141.21915"
     inkscape:window-x="0"
     inkscape:window-y="18"
     inkscape:window-maximized="0"
     inkscape:current-layer="svg2" />
  <defs
     id="defs4">
    <radialGradient
       id="radialGradient4212"
       cx="0"
       gradientUnits="userSpaceOnUse"
       cy="0"
       r="1"
       gradientTransform="matrix(126.24427,0,0,126.24427,122.7866,76.642128)">
      <stop
         id="stop4214"
         stop-color="#456587"
         offset="0" />
      <stop
         id="stop4216"
         stop-color="#00294b"
         offset="1" />
    </radialGradient>
    <clipPath
       id="clipPath4224"
       clipPathUnits="userSpaceOnUse">
      <path
         id="path4226"
         d="m318.33 61.001h63.359v64.626h-63.359v-64.626z" />
    </clipPath>
    <radialGradient
       inkscape:collect="always"
       xlink:href="#radialGradient4212"
       id="radialGradient4604"
       gradientUnits="userSpaceOnUse"
       gradientTransform="matrix(126.24427,0,0,126.24427,122.7866,76.642128)"
       cx="0"
       cy="0"
       r="1" />
  </defs>
  <metadata
     id="metadata7">
    <rdf:RDF>
      <cc:Work
         rdf:about="">
        <dc:format>image/svg+xml</dc:format>
        <dc:type
           rdf:resource="http://purl.org/dc/dcmitype/StillImage" />
        <dc:title />
      </cc:Work>
    </rdf:RDF>
  </metadata>
  <path
     style="fill:url(#radialGradient4604);stroke-width:3.28812504"
     d="M 90.365234 -0.00390625 C 65.64511 -0.00390625 43.259163 10.537955 23.744141 31.394531 C 6.1329414 50.219047 0.11377499 65.399443 0.064453125 83.638672 L 0.064453125 84.113281 C 0.094046245 93.980944 1.8464575 104.75923 4.4375 117.49414 C 9.3137894 141.44813 23.531093 164.57374 43.447266 180.94531 C 58.694301 193.47636 75.704719 199.87771 93.625 199.99609 C 102.91066 200.05859 112.44167 198.43511 122.10547 195.09766 C 153.29991 184.32905 183.14299 153.49813 194.67773 120.12695 C 198.25521 109.76607 200.03095 99.678312 200.06055 90.060547 L 200.06055 89.505859 C 199.96848 65.604479 189.0487 44.652572 168.18555 29.671875 C 142.87357 11.491832 118.53201 1.5667569 95.824219 0.16601562 C 94.025615 0.054219395 92.236526 -0.000618125 90.460938 -0.00390625 L 90.365234 -0.00390625 z M 133.96875 49.939453 C 135.95478 49.939453 137.87009 50.267414 139.66211 50.869141 C 140.58937 51.181513 141.26172 52.050173 141.26172 53.085938 C 141.26172 53.638342 141.06247 54.145724 140.74023 54.546875 L 140.75977 54.558594 L 137.17969 59.054688 C 135.78553 58.433231 134.24285 58.080078 132.61523 58.080078 C 126.40725 58.080078 121.37695 63.112333 121.37695 69.320312 L 121.37695 116.56055 L 115.17383 116.56055 C 113.65143 116.56055 112.61914 115.65494 112.61914 113.96484 L 112.61914 53.894531 C 112.61914 52.49379 113.33352 51.273438 115.20117 51.273438 L 121.40234 51.273438 L 121.40234 54.8125 C 124.71677 51.784137 129.12534 49.939453 133.96875 49.939453 z M 159.31641 49.992188 C 165.21202 49.992187 170.15216 51.985144 173.22656 55.615234 C 173.9894 56.595095 174.51827 58.119733 172.69336 59.816406 L 169.54102 62.701172 L 169.33984 62.496094 C 165.67687 58.764073 162.67397 58.015625 159.01758 58.015625 C 152.82933 58.015625 148.67383 61.835698 148.67383 67.517578 C 148.67383 71.874344 150.6886 74.305094 156.36719 76.800781 L 162.27734 79.375 L 162.2793 79.376953 C 171.00793 83.135098 176.82031 87.780238 176.82031 98.251953 C 176.82031 110.34897 166.3864 116.67773 156.07812 116.67773 C 151.31364 116.67773 144.68523 115.45793 140.16406 109.64453 C 138.51671 107.52698 138.5306 106.25576 140.2207 104.76953 L 143.50391 101.88086 L 143.70117 102.10547 C 148.69583 107.76433 152.76035 108.54688 156.41016 108.54688 C 160.65842 108.54688 167.83984 106.42529 167.83984 98.474609 C 167.83984 92.648052 164.95711 90.331226 158.90039 87.615234 L 152.86914 84.921875 C 146.02656 81.880359 139.69336 77.680704 139.69336 67.628906 C 139.69336 57.409413 147.94607 49.992188 159.31641 49.992188 z M 44.492188 49.998047 C 63.244363 49.998047 64.90545 66.143391 65.046875 69.378906 C 65.076469 69.964192 64.859715 70.525571 64.435547 70.962891 C 63.994939 71.413364 63.380702 71.673828 62.746094 71.673828 L 55.886719 71.673828 L 55.876953 71.480469 C 55.857224 70.951081 55.212441 58.482422 44.591797 58.482422 C 35.260098 58.482422 30.524871 66.84332 30.511719 83.339844 C 30.524871 99.833079 35.260098 108.19922 44.591797 108.19922 C 55.031594 108.19922 55.824379 96.528957 55.876953 95.197266 L 55.886719 95.003906 L 62.746094 95.003906 C 63.380702 95.003906 64.002133 95.268796 64.439453 95.732422 C 64.876774 96.192759 65.088999 96.791272 65.042969 97.416016 C 64.783208 101.93389 62.540706 116.67773 44.492188 116.67773 C 29.340508 116.67773 21.332031 105.13784 21.332031 83.304688 C 21.332031 61.517572 29.340508 49.998047 44.492188 49.998047 z M 90.072266 50.064453 C 100.37068 50.064453 108.71289 58.784959 108.71289 69.080078 L 108.71289 114.10938 C 108.71289 115.74358 107.82568 116.69141 106.11914 116.69141 L 99.953125 116.69141 L 99.953125 69.445312 C 99.953125 63.24062 94.923442 58.205078 88.71875 58.205078 C 82.514058 58.205078 77.480469 63.24062 77.480469 69.445312 L 77.480469 116.68555 L 71.275391 116.68555 C 69.756277 116.68555 68.722656 115.77994 68.722656 114.08984 L 68.722656 54.023438 C 68.722656 52.619407 69.437033 51.402344 71.304688 51.402344 L 77.505859 51.402344 L 77.505859 54.941406 C 80.820289 51.913043 85.228858 50.064453 90.072266 50.064453 z M 88.732422 66.662109 C 89.653097 66.662109 90.398437 67.409403 90.398438 68.330078 L 90.398438 181.66406 C 90.398438 182.58473 89.653097 183.32812 88.732422 183.32812 C 87.815035 183.32812 87.068359 182.58473 87.068359 181.66406 L 87.068359 68.330078 C 87.068359 67.409403 87.815035 66.662109 88.732422 66.662109 z "
     id="path4218" />
  <path
     style="fill:#30b2d2;stroke-width:3.28812504;fill-opacity:0.67605633"
     inkscape:connector-curvature="0"
     d="m 162.27698,79.374559 0.003,0.0033 -5.91205,-2.57789 c -5.67859,-2.495687 -7.69421,-4.925611 -7.69421,-9.282377 0,-5.68188 4.15619,-9.502681 10.34444,-9.502681 3.65639,0 6.65845,0.749693 10.32142,4.481714 l 0.20058,0.203864 3.15331,-2.883685 c 1.82491,-1.696673 1.29552,-3.222363 0.53268,-4.202224 -3.0744,-3.63009 -8.01316,-5.622694 -13.90877,-5.622694 -11.37034,0 -19.62353,7.41801 -19.62353,17.637503 0,10.051798 6.33293,14.250733 13.17551,17.292249 l 6.03043,2.692974 c 6.05672,2.715992 8.94041,5.03412 8.94041,10.860677 0,7.950681 -7.18127,10.071521 -11.42953,10.071521 -3.64981,0 -7.71394,-0.78257 -12.7086,-6.44143 l -0.19729,-0.2236 -3.28483,2.88698 c -1.6901,1.48623 -1.70325,2.75874 -0.0559,4.87629 4.52117,5.8134 11.15003,7.0333 15.91452,7.0333 10.30828,0 20.7415,-6.32964 20.7415,-18.426653 0,-10.472678 -5.81341,-15.118799 -14.54338,-18.877126"
     id="path4234" />
  <path
     style="fill:#30b2d2;stroke-width:3.28812504;fill-opacity:0.67605633"
     inkscape:connector-curvature="0"
     d="m 108.71342,69.07944 c 0,-10.295119 -8.34197,-19.015227 -18.640381,-19.015227 -4.843408,0 -9.252783,1.847926 -12.567213,4.876289 V 51.40248 h -6.201404 c -1.867655,0 -2.581178,1.216606 -2.581178,2.620636 v 60.067464 c 0,1.6901 1.032471,2.59433 2.551585,2.59433 h 6.204692 V 69.444422 c 0,-6.204692 5.034119,-11.238811 11.238811,-11.238811 6.204692,0 11.235523,5.034119 11.235523,11.238811 v 47.247068 h 6.165235 c 1.70654,0 2.59433,-0.94698 2.59433,-2.58118 z"
     id="path4238" />
</svg>
