<?xml version="1.0" encoding="UTF-8" standalone="no"?>
<!-- Created with Inkscape (http://www.inkscape.org/) -->

<svg
   xmlns:dc="http://purl.org/dc/elements/1.1/"
   xmlns:cc="http://creativecommons.org/ns#"
   xmlns:rdf="http://www.w3.org/1999/02/22-rdf-syntax-ns#"
   xmlns:svg="http://www.w3.org/2000/svg"
   xmlns="http://www.w3.org/2000/svg"
   xmlns:sodipodi="http://sodipodi.sourceforge.net/DTD/sodipodi-0.dtd"
   xmlns:inkscape="http://www.inkscape.org/namespaces/inkscape"
   version="1.1"
   width="303.56436"
   height="90.21965"
   id="svg8993"
   xml:space="preserve"
   sodipodi:docname="coventry.svg"
   inkscape:version="0.92.1 r"><sodipodi:namedview
     pagecolor="#ffffff"
     bordercolor="#666666"
     borderopacity="1"
     objecttolerance="10"
     gridtolerance="10"
     guidetolerance="10"
     inkscape:pageopacity="0"
     inkscape:pageshadow="2"
     inkscape:window-width="1276"
     inkscape:window-height="985"
     id="namedview76"
     showgrid="false"
     fit-margin-top="0"
     fit-margin-left="0"
     fit-margin-right="0"
     fit-margin-bottom="0"
     inkscape:zoom="0.55874229"
     inkscape:cx="-98.562709"
     inkscape:cy="167.62525"
     inkscape:window-x="1366"
     inkscape:window-y="18"
     inkscape:window-maximized="0"
     inkscape:current-layer="svg8993" /><metadata
     id="metadata8999"><rdf:RDF><cc:Work
         rdf:about=""><dc:format>image/svg+xml</dc:format><dc:type
           rdf:resource="http://purl.org/dc/dcmitype/StillImage" /><dc:title></dc:title></cc:Work></rdf:RDF></metadata><defs
     id="defs8997"><clipPath
       id="clipPath9007"><path
         d="M 0,0 H 841.89 V 595.276 H 0 Z"
         id="path9009"
         inkscape:connector-curvature="0" /></clipPath><clipPath
       id="clipPath9123"><path
         d="M 243.926,234.328 H 579.629 V 467.717 H 243.926 Z"
         id="path9125"
         inkscape:connector-curvature="0" /></clipPath><clipPath
       id="clipPath9217"><path
         d="m 253.019,245.4 h 318.49 v 219.463 h -318.49 z"
         id="path9219"
         inkscape:connector-curvature="0" /></clipPath><clipPath
       id="clipPath9237"><path
         d="m 251.683,125.21 h 172.925 v 49.538 H 251.683 Z"
         id="path9239"
         inkscape:connector-curvature="0" /></clipPath><clipPath
       id="clipPath9331"><path
         d="m 257.379,126.717 h 160.223 v 44.826 H 257.379 Z"
         id="path9333"
         inkscape:connector-curvature="0" /></clipPath><clipPath
       id="clipPath9351"><path
         d="M 0,0 H 841.89 V 595.276 H 0 Z"
         id="path9353"
         inkscape:connector-curvature="0" /></clipPath><clipPath
       id="clipPath9217-4"><path
         d="m 253.019,245.4 h 318.49 v 219.463 h -318.49 z"
         id="path9219-0"
         inkscape:connector-curvature="0" /></clipPath><clipPath
       id="clipPath9123-9"><path
         d="M 243.926,234.328 H 579.629 V 467.717 H 243.926 Z"
         id="path9125-4"
         inkscape:connector-curvature="0" /></clipPath></defs><path
     d="m 44.079301,42.979637 c -4.727472,0 -6.149363,-4.39537 -6.149363,-8.742736 0,-4.393405 1.421891,-8.793547 6.149363,-8.793547 4.773793,0 6.204106,4.400142 6.204106,8.793547 0,4.347366 -1.430313,8.742736 -6.204106,8.742736 m 0,-23.204198 c -7.975223,0 -13.140913,5.719288 -13.140913,14.461462 0,8.689959 5.16569,14.411211 13.140913,14.411211 8.022947,0 13.19341,-5.721252 13.19341,-14.411211 0,-8.742174 -5.170463,-14.461462 -13.19341,-14.461462"
     id="path9131"
     style="fill:#1476c6;fill-opacity:1;fill-rule:nonzero;stroke:none;stroke-width:0.28072876"
     inkscape:connector-curvature="0" /><path
     d="m 74.009759,47.901935 8.914823,-27.390986 h -7.53476 L 69.983828,40.568738 64.578396,20.510949 h -7.53476 l 8.914541,27.390986 z"
     id="path9137"
     style="fill:#1476c6;fill-opacity:1;fill-rule:nonzero;stroke:none;stroke-width:0.28072876"
     inkscape:connector-curvature="0" /><path
     d="m 16.003589,81.192436 c 9.282016,0 12.58872,-6.148802 12.58872,-13.381779 V 47.901935 H 25.404353 V 67.06813 c 0.04351,8.172014 -3.25898,11.275751 -9.400764,11.275751 -6.1417842,0 -9.4442773,-3.103737 -9.4007644,-11.275751 V 47.901935 H 3.4148688 v 19.908722 c 0,7.232977 3.3064234,13.381779 12.5887202,13.381779"
     id="path9143"
     style="fill:#1476c6;fill-opacity:1;fill-rule:nonzero;stroke:none;stroke-width:0.28072876"
     inkscape:connector-curvature="0" /><path
     inkscape:connector-curvature="0"
     style="fill:#1476c6;fill-opacity:1;fill-rule:nonzero;stroke:none;stroke-width:0.28072876"
     id="path9147"
     d="m 59.30033,80.461979 h 3.103176 V 55.052377 H 59.30033 Z" /><path
     d="m 79.110039,80.461979 9.80361,-25.409602 H 85.466861 L 77.371205,77.360768 69.275268,55.052377 h -3.446226 l 9.803048,25.409602 z"
     id="path9153"
     style="fill:#1476c6;fill-opacity:1;fill-rule:nonzero;stroke:none;stroke-width:0.28072876"
     inkscape:connector-curvature="0" /><path
     inkscape:connector-curvature="0"
     style="fill:#1476c6;fill-opacity:1;fill-rule:nonzero;stroke:none;stroke-width:0.28072876"
     id="path9157"
     d="m 151.62191,80.461979 h 3.10177 V 55.052377 h -3.10177 z" /><path
     d="M 117.61171,47.905893 V 33.283574 c 0,-5.561517 1.62458,-7.840193 5.41329,-7.840193 3.24803,0 4.48436,2.225618 4.48436,6.728788 v 15.733724 h 6.98987 V 31.062167 c 0,-6.784933 -1.87527,-11.2867 -9.31009,-11.2867 -2.9499,0 -6.28692,1.505829 -7.92525,4.554825 v -3.819315 h -6.64373 v 27.394916 h 6.99155"
     id="path9163"
     style="fill:#1476c6;fill-opacity:1;fill-rule:nonzero;stroke:none;stroke-width:0.28072876"
     inkscape:connector-curvature="0" /><path
     d="m 145.96646,13.722394 -6.99155,2.426058 v 4.36084 h -2.65962 v 5.035433 h 2.65962 v 14.169784 c 0,6.637831 3.70337,8.509169 7.99038,8.509169 1.247,0 2.62145,-0.04155 3.75054,-0.209423 v -5.875653 c -0.6148,0.107238 -1.20461,0.150189 -1.83569,0.150189 -2.36261,0 -2.91368,-0.635008 -2.91368,-5.823998 V 25.54697 h 4.74937 v -5.037678 h -4.74937 v -6.786898"
     id="path9169"
     style="fill:#1476c6;fill-opacity:1;fill-rule:nonzero;stroke:none;stroke-width:0.28072876"
     inkscape:connector-curvature="0" /><path
     d="M 36.534715,80.461979 V 65.638378 c 0.09685,-4.969461 3.051522,-8.711014 7.970732,-8.711014 5.022237,0 6.450304,3.296317 6.450304,7.679616 v 15.854999 h 3.103176 V 64.114582 c 0,-6.052231 -2.596179,-9.798557 -9.304193,-9.798557 -3.481037,0 -7.24954,2.186597 -8.37835,5.236153 v -4.499801 h -2.94681 v 25.409602 h 3.105141"
     id="path9175"
     style="fill:#1476c6;fill-opacity:1;fill-rule:nonzero;stroke:none;stroke-width:0.28072876"
     inkscape:connector-curvature="0" /><path
     d="M 119.70286,80.461979 V 66.916255 c 0,-5.261419 3.52343,-9.4993 9.45214,-9.4993 v -3.102053 c -4.915,0 -8.03109,2.612462 -9.60851,6.699592 v -5.962117 h -2.94652 v 25.409602 h 3.10289"
     id="path9181"
     style="fill:#1476c6;fill-opacity:1;fill-rule:nonzero;stroke:none;stroke-width:0.28072876"
     inkscape:connector-curvature="0" /><path
     d="m 133.69101,61.01281 c 0,-3.373798 2.88842,-4.174717 6.38939,-4.174717 1.88453,0 4.39228,0.604128 6.18136,1.543446 v -3.001832 c -2.35419,-0.771724 -5.16821,-1.065366 -6.55866,-1.065366 -4.71961,0 -9.20201,1.815192 -9.20201,6.698469 0,8.148152 13.92948,6.65636 13.92948,12.886012 0,3.295474 -3.46953,4.769862 -6.70072,4.769862 -2.63913,0 -5.19628,-0.716701 -7.24308,-1.672863 v 3.099526 c 2.33398,0.814675 4.93465,1.097088 7.4584,1.097088 4.14693,0 9.6683,-1.861512 9.6683,-7.293613 0,-8.703153 -13.92246,-7.891005 -13.92246,-12.886012"
     id="path9187"
     style="fill:#1476c6;fill-opacity:1;fill-rule:nonzero;stroke:none;stroke-width:0.28072876"
     inkscape:connector-curvature="0" /><path
     d="m 183.57036,80.461979 c -2.37244,5.841123 -5.317,9.075399 -9.0142,9.474596 l -1.03729,-2.417356 c 3.83924,-0.561457 5.63478,-4.08713 6.90705,-7.05724 h -1.78207 l -8.89938,-22.990563 h -5.20836 v 15.6088 c 0,2.731772 0.096,4.958232 2.26351,4.958232 0.58982,0 1.61728,0.009 2.41399,-0.07608 v 2.609374 c -0.91293,0.05923 -1.87246,0.08225 -2.50775,0.08225 -4.04277,0 -5.27265,-2.591968 -5.27265,-7.453629 V 57.471416 h -3.32326 v -2.419601 h 3.32326 v -5.577519 h 3.12985 v 5.577519 h 7.74839 l 8.905,23.287855 9.23064,-23.287855 h 3.44482 l -10.32155,25.410164"
     id="path9193"
     style="fill:#1476c6;fill-opacity:1;fill-rule:nonzero;stroke:none;stroke-width:0.28072876"
     inkscape:connector-curvature="0" /><path
     d="M 186.52556,20.509264 180.09182,40.5693 173.61653,20.509264 h -5.78245 c -4.87037,0 -6.81357,2.725035 -7.5808,5.035432 v -5.035432 h -6.64373 v 27.392671 h 6.99127 v -12.28834 c 0,-6.027247 2.40051,-8.891522 7.38513,-8.994269 l 7.2195,21.282609 h 2.76771 c -1.09035,3.255892 -1.8006,4.895067 -3.35668,5.952292 l 2.28317,5.970539 5.6e-4,0.0014 c 3.44932,-1.120108 6.18305,-6.795601 7.66586,-10.902382 l 9.30335,-28.414524 h -7.34386"
     id="path9199"
     style="fill:#1476c6;fill-opacity:1;fill-rule:nonzero;stroke:none;stroke-width:0.28072876"
     inkscape:connector-curvature="0" /><path
     d="m 23.551459,36.605129 c -1.038416,3.346287 -3.396818,5.545516 -7.090366,5.545516 -6.6122859,0 -9.0995427,-5.908498 -9.0995427,-11.763377 0,-6.155259 2.4872568,-12.061512 9.0995427,-12.061512 3.486932,0 6.544629,2.419321 7.223431,5.679424 l 6.66394,-2.313767 C 28.490882,15.325046 22.928522,11.825201 16.461093,11.825201 6.0971479,11.825201 0,19.947807 0,30.387268 c 0,10.137115 6.0971479,18.260283 16.461093,18.260283 6.639235,0 11.682246,-3.677266 13.761043,-9.725848 l -6.670677,-2.316574"
     id="path9205"
     style="fill:#1476c6;fill-opacity:1;fill-rule:nonzero;stroke:none;stroke-width:0.28072876"
     inkscape:connector-curvature="0" /><path
     d="m 95.273278,25.443353 c 3.391765,0 5.045542,2.027704 5.561512,5.826806 H 89.460228 c 0.103027,-2.115853 1.382869,-5.826806 5.81305,-5.826806 m 5.640402,14.743032 c -0.81075,1.44435 -2.805042,2.793251 -5.202184,2.793251 -3.885286,0 -6.05167,-2.170875 -6.251268,-6.94158 h 18.363312 c 0.49717,-8.425231 -3.69243,-16.262617 -12.352629,-16.262617 -7.729586,0 -12.998303,6.250145 -12.998303,14.461462 0,8.481096 4.970303,14.411211 12.998303,14.411211 4.899559,0 8.651499,-2.000754 10.880199,-6.573826 l -5.43743,-1.887901"
     id="path9211"
     style="fill:#1476c6;fill-opacity:1;fill-rule:nonzero;stroke:none;stroke-width:0.28072876"
     inkscape:connector-curvature="0" /><path
     d="m 100.97575,56.927365 c 5.02083,0 7.92132,4.384141 8.0732,9.06024 H 92.603577 c 0.496329,-4.626691 3.298282,-9.06024 8.372173,-9.06024 m 7.38513,16.888642 c -1.23549,2.88533 -3.58097,4.770985 -7.38513,4.770985 -5.960151,0 -8.322765,-5.4627 -8.372173,-9.991136 h 19.545463 c 0.24283,-7.142301 -3.00689,-14.27983 -11.17329,-14.27983 -8.074881,0 -11.477033,6.747877 -11.477033,13.445223 0,7.229889 3.402152,13.431187 11.477033,13.431187 5.31476,0 8.51731,-2.310678 10.21488,-6.393878 h -5.6e-4 l -2.82919,-0.982551"
     id="path9225"
     style="fill:#1476c6;fill-opacity:1;fill-rule:nonzero;stroke:none;stroke-width:0.28072876"
     inkscape:connector-curvature="0" /><path
     d="m 291.52771,50.369054 c -4.70236,1.497069 -9.52485,3.022452 -14.02899,5.093513 -1.76729,0.747118 -3.54468,1.855862 -5.21001,2.926989 -0.69211,-2.431069 0.0104,-5.138816 1.83685,-6.556602 1.41414,1.03917 3.14259,1.579586 5.06156,1.296434 3.77401,-0.431606 5.89928,-3.875955 7.35305,-7.41779 2.70734,-1.284704 5.44261,-2.547161 7.9117,-4.193491 -0.48823,2.82384 -1.51245,5.750021 -2.46101,8.418938 -0.11729,0.277085 -0.019,0.306613 -0.46315,0.432009 m -17.94338,10.333049 c 4.92969,-2.052451 11.47537,-4.357719 16.56484,-5.9458 -2.07631,3.536172 -10.72663,10.710857 -16.56484,5.9458 M 285.48766,46.13754 c -0.88547,1.988541 -2.21426,4.396148 -4.09845,5.496399 -1.84897,1.173059 -4.97578,1.080428 -6.73294,-0.296907 2.84567,-2.272907 7.37651,-3.836717 10.83139,-5.199492 m 2.91931,-15.966168 c -0.13271,3.714557 -0.58774,7.045241 -1.59658,10.408285 -1.20341,0.749951 -10.88115,5.591863 -13.22,9.284577 -2.33762,-7.059806 11.06562,-14.942372 14.81658,-19.692862 m 0.93845,-1.10187 c 1.03917,-1.239804 3.17777,-5.00897 3.46295,-5.859641 1.63785,-3.892137 1.71347,-8.238125 1.63785,-10.002975 0.5404,1.753524 0.86279,3.608577 1.0784,5.460801 0.74954,5.725752 0.3325,11.93165 -0.37701,17.789269 -2.32184,1.510011 -4.73714,2.589228 -7.18519,3.63851 0.78919,-3.557206 1.43517,-7.035938 1.383,-11.025964 m -6.0182,39.629237 c -1.87328,1.845348 -4.27522,3.972228 -6.26376,5.98059 -3.88444,-1.283088 -8.4242,-1.752311 -12.56308,-0.944922 -0.019,-1.432347 0.0648,-2.630487 0.52383,-4.009037 5.67802,-1.137465 12.27104,-0.821547 18.30301,-1.026631 m -2.62929,11.328534 c -2.08967,1.863548 -6.14118,3.11468 -10.06689,2.071059 l 4.47179,-3.617476 c 1.89268,0.72487 3.66643,0.982134 5.5951,1.546417 m -10.84514,1.812986 c 0,0 -3.54589,-1.898336 -5.16916,-6.495926 3.18061,0.261713 6.68118,1.806918 9.5483,2.794717 0,0 -3.02406,2.542305 -4.37914,3.701209 m -9.06899,2.492956 c 0.85108,-2.591655 0.75522,-5.44907 -0.23219,-8.095738 0.14766,-0.105176 2.26039,-0.931572 3.304,-0.854312 1.85666,4.978631 5.1914,6.628604 5.4693,6.912161 -2.34329,1.794782 -5.55788,2.786223 -8.54111,2.037889 m -1.09013,-0.450618 c -4.23394,-3.719008 -0.50806,-6.946946 0.0607,-7.202998 0.66136,2.111914 0.72081,5.144479 -0.0607,7.202998 m -10.71612,0.291244 c 4.92969,-3.676534 2.31781,-7.083265 0.51655,-8.768024 0.39803,-0.774625 0.83894,-1.728445 1.79034,-2.583161 1.06101,0.957461 1.48047,2.412461 1.61801,4.039374 0.2415,0.0081 0.21237,-0.0045 0.67552,0.01369 0.0971,-1.741792 -0.65489,-3.43181 -1.66778,-4.744426 0.62538,-0.578034 2.3781,-2.100992 2.91364,-2.336818 0.89275,0.775031 1.61237,1.546824 2.46425,2.576286 0,0 -2.09371,2.085215 -2.01159,4.566847 l 0.6383,0.0263 c 0.30339,-1.302502 0.18971,-2.160455 1.94728,-3.861393 0.71598,0.83894 1.25801,1.700938 1.56907,2.717051 -1.0428,0.863616 -5.26623,4.58667 -0.0717,8.778947 -5.54372,8.367565 -10.33063,0 -10.38201,-0.42473 m 0.17517,-7.936363 c 3.70849,3.535362 0.71192,6.369721 -0.48663,7.17711 0,0 -0.97403,-3.371944 0.48663,-7.17711 m -1.63542,7.571502 c -3.02488,0.458707 -6.25484,-0.998317 -8.31983,-2.661232 4.3824,-2.452505 5.63231,-6.146838 5.96563,-6.527072 1.19368,0.151284 2.22638,0.54608 3.19638,1.113599 -0.88384,1.951326 -1.70782,5.309921 -0.84218,8.074705 m -12.91336,-7.168214 c 3.00627,-0.81184 6.31835,-2.009575 9.65631,-2.064993 0.0119,0.462752 -2.72676,4.739571 -5.57811,6.045713 -1.36034,-1.307761 -4.0782,-3.98072 -4.0782,-3.98072 m -6.58978,1.437606 c 0.4575,-0.04774 3.96697,-0.737815 5.66386,-1.167398 1.28876,1.275805 2.83235,2.711793 4.20401,3.966161 0,0 -5.94338,1.035124 -9.86787,-2.798763 m -1.75228,-11.484671 c 4.06161,0.326838 15.56005,1.224837 18.08416,2.321042 0.38264,1.17832 0.37699,2.825864 0.2625,4.027241 -3.98275,-0.982944 -8.71907,-1.075575 -12.63306,0.02993 0,0 -3.9439,-4.364597 -5.7136,-6.378215 m 19.12736,2.602173 c 1.85101,0.455066 3.74003,1.799635 5.28848,2.949235 -0.94007,1.01126 -1.31383,1.654017 -1.83442,2.702895 -0.97971,-0.732152 -1.73452,-1.086903 -3.47227,-1.683949 0.1517,-1.27257 0.16018,-2.712199 0.0181,-3.968181 m -6.79769,-11.61371 c 1.25599,-3.064117 0.59948,-5.383542 -0.91498,-8.269272 4.52477,-5.981802 -1.20623,-14.17179 -5.3358,-18.314719 -2.14832,-2.272907 -7.23052,-7.855059 -7.62976,-8.507927 -0.95099,-9.628001 3.7008,-18.1448283 4.04423,-18.838956 -2.30445,4.9830814 -3.46983,12.013358 9.664,28.310817 2.32589,2.891797 5.51703,6.155738 5.36129,10.405455 -0.0655,3.824989 -3.13815,6.897194 -2.71705,10.34842 0.32967,2.290302 1.60548,4.220188 4.04827,4.684155 2.60542,0.494303 4.72987,-0.254433 6.38185,-2.073486 5.31964,-6.921465 -2.87318,-11.984639 -2.90473,-18.891946 -0.0119,-2.625634 1.50881,-4.217356 3.80476,-5.054679 1.60224,-0.460731 3.71335,-0.940068 4.98914,0.34221 -0.4591,0.05217 -1.37328,0.221263 -2.48163,0.77058 l 0.0129,0.03357 c -0.14279,-0.210342 -0.38389,-0.348277 -0.65652,-0.348277 -0.43928,0 -0.79365,0.35556 -0.79365,0.793637 0,0.121353 0.0291,0.23461 0.0781,0.33776 0.11526,0.298118 0.39561,0.532327 0.85795,0.441718 0.0174,-0.0032 0.0348,-0.0081 0.053,-0.01297 0.15575,-0.03722 0.32847,-0.109219 0.52302,-0.227332 1.04443,-0.633047 2.29274,-0.862401 2.86956,-0.938448 l 8.1e-4,0.0029 c 4.96284,-0.355964 3.60776,2.303245 3.60776,2.303245 0,0 -3.83875,-2.162478 -7.5715,1.385424 -5.56112,6.211156 19.92869,18.486633 0.80819,32.469521 -0.80051,-0.725275 -3.26069,-2.370392 -4.88194,-3.04551 -0.1444,0.188095 -0.22653,0.344638 -0.33978,0.515743 1.63782,0.768961 3.30195,1.79721 4.60445,2.938719 -1.16739,0.78312 -1.78063,1.382191 -2.69885,2.261582 -1.71348,-1.732086 -3.6931,-3.150277 -6.17716,-4.204413 -1.20543,-3.76512 -3.69436,-6.995489 -6.60556,-9.617483 m -0.63304,-0.596237 c -4.47139,-3.363451 -11.81273,-6.773416 -18.9595,-9.493705 -0.64357,-1.690017 -1.83525,-7.868812 -1.91169,-8.849734 2.0375,1.66332 5.08381,3.593612 7.6609,4.879529 3.33795,10.800252 10.4099,7.854251 11.86248,6.882228 1.8142,1.766469 2.14589,4.118658 1.34781,6.581682 M 220.43084,52.15165 c 3.64215,1.319087 15.13977,6.614849 16.03979,7.142323 -1.1937,1.230501 -8.75226,3.948767 -16.03979,-7.142323 m -1.89747,-40.303941 c -0.15249,2.00634 0.0736,7.016525 4.50943,14.792705 -0.20591,3.679772 0.0942,7.480084 0.60311,11.004121 -2.43997,-1.199758 -4.5612,-2.722715 -6.88627,-4.081038 -0.20388,-3.107398 0.19537,-18.325641 1.77373,-21.715788 m 17.54779,37.999897 c -0.51615,0.478931 -7.3292,3.572578 -10.35975,-5.911015 3.37802,1.539542 7.57555,3.509475 10.35975,5.911015 M 223.95697,27.79406 c 1.9853,3.244524 16.29948,14.098169 13.3021,20.580747 -3.55195,-4.926047 -12.17313,-9.617482 -12.51048,-10.052323 -0.66137,-3.246547 -0.85472,-6.985377 -0.79162,-10.528424 m 40.02161,42.143227 c -0.1517,1.301693 -0.30056,1.831593 -0.23785,3.970204 -1.26043,0.320368 -2.57427,0.717591 -3.59483,1.423855 -0.42271,-1.047261 -0.97323,-1.984497 -1.6435,-2.83274 0,0 2.67863,-1.910877 5.47618,-2.561319 m 37.10514,-11.20961 c 2.44117,3.419271 -8.52371,6.352732 -13.3098,6.498354 0,0 9.94511,-9.698789 13.3098,-6.498354 m -6.94535,16.616612 c 0.37054,1.495451 -4.10976,4.914722 -9.99406,2.051643 5.70107,-4.141715 9.69959,-4.009038 9.99406,-2.051643 m -79.23461,-2.604195 c 0.56268,-3.935417 8.19282,0.812243 9.85615,2.431473 -2.51723,1.237781 -9.79345,1.183577 -9.85615,-2.431473 m -5.93488,-17.070465 c 2.48892,-3.51797 10.41599,4.193492 13.04484,7.105514 -1.49747,-0.218837 -15.18021,-3.205288 -13.04484,-7.105514 m 84.09433,-5.841035 c 2.05164,-5.524308 1.80853,-6.108008 2.53987,-8.92578 6.54085,-3.454463 8.03953,-11.952279 7.95821,-12.875762 -0.13587,-2.531788 -0.007,-1.130992 -0.25524,-0.267376 -0.72122,2.519249 -3.10173,5.356439 -5.25045,7.014096 -0.54608,0.332907 -1.20097,0.914987 -1.8858,1.207039 0.15452,-2.333987 2.69156,-17.066826 -3.07504,-28.4224598 l -0.0365,0.031153 c 1.84656,5.7030988 -0.6375,11.9429738 -4.0491,16.1761068 -0.07,-0.7993 -1.3664,-15.5345634 -7.86233,-22.947097 l -0.5481,-0.679162 c 0.98254,1.565834 2.17178,10.550269 -2.99978,19.274607 -2.62566,3.979104 -6.21805,7.445296 -9.3574,10.980256 -2.96057,3.718603 -4.37471,7.323944 -2.98483,13.812187 0.46032,1.749883 1.19368,4.421226 1.97964,5.03405 0.46557,0.190115 0.39682,-0.403696 0.24026,-0.770984 -0.78918,-1.694467 -1.98611,-8.416512 5.58337,-17.16067 12.71962,-14.683084 9.18669,-27.5547987 9.18669,-27.5547987 2.04073,2.1649038 5.37869,14.3663557 5.73871,21.0422877 -3.95727,4.567252 -18.22616,14.78421 -16.04951,22.88197 0.25038,1.065869 0.6917,2.11515 1.18965,2.989284 -1.88338,3.018002 -2.51965,5.279583 -1.5262,8.226798 -2.84689,2.301222 -5.94621,5.441385 -7.24871,9.043491 -2.2907,0.854312 -4.47826,1.968315 -6.48015,3.773618 -0.78514,-0.877371 -1.42508,-1.602242 -2.35583,-2.309717 0.59624,-0.347873 6.29409,-3.419676 8.53625,-5.782383 2.17583,-2.260772 3.48278,-5.389204 2.66244,-8.834767 -1.44247,-6.071603 -15.01234,-14.050439 -12.14119,-17.558298 1.50195,-1.870829 4.87145,-2.750626 6.82358,-1.395537 v -0.0029 c 0,0 0.0166,0.01253 0.0392,0.02669 0.0119,0.0069 0.019,0.01162 0.0364,0.02426 l -0.006,0.0015 c 0.10967,0.07847 0.31835,0.241489 0.41219,0.3414 0.90164,-1.318277 1.82512,-4.703165 -3.45891,-4.664333 -0.42189,-1.078001 -1.71671,-1.481695 -2.84891,-1.625294 -3.38288,-0.22814 -6.63549,1.282276 -7.87811,4.216142 -1.57555,3.69595 3.08271,11.847511 2.77447,17.114556 0.19701,4.488374 -8.79067,7.47523 -8.65557,0.476505 0.0599,-3.142993 7.39393,-11.664271 0.60514,-21.507467 -2.53703,-3.385696 -5.52228,-6.530309 -8.04437,-9.750969 C 225.1688,8.7283833 230.65185,0.006472 230.54588,0 c -8.98122,11.605621 -6.90085,21.195595 -7.12778,20.749427 -0.59098,-1.087711 -5.64566,-7.125334 -3.18789,-14.9472244 0,0 -5.54454,6.9712194 -4.55512,27.1053954 -0.96071,-0.582891 -6.75844,-5.822833 -6.53234,-9.753395 0,0 -1.33891,8.647078 6.81266,14.851763 0.629,3.17333 0.82316,5.906563 1.85911,9.032568 -3.14866,-1.1407 -8.02537,-4.858089 -9.62356,-8.332778 -0.22125,-0.639116 0.94491,7.908454 10.74363,12.805782 7.87609,13.51609 16.68659,9.911558 18.48945,8.136189 2.54797,0.977686 6.27873,6.344239 6.46519,7.093379 -5.17117,-1.639454 -13.5889,-3.588353 -20.12124,-3.807999 -3.69109,-3.715368 -11.94295,-11.525122 -15.46094,-7.757978 -3.76876,4.845956 9.37681,10.470176 16.2202,11.190598 1.8401,1.947281 4.54621,4.635614 6.35274,6.874542 -2.08887,0.520595 -2.41733,0.670668 -5.30668,1.693253 -9.80761,-8.040323 -11.28971,-2.571836 -11.28971,-2.571836 -1.48129,6.569142 11.17036,6.218438 12.64235,5.860857 3.63165,3.763097 8.98687,4.097622 11.56962,3.272839 3.82661,3.540217 7.89552,3.426148 9.1422,3.115084 4.1684,9.59564 11.35078,4.895305 13.01288,0.498753 3.61506,0.949775 6.67188,-0.510888 9.37073,-2.44644 1.81946,0.635071 6.94372,1.549656 11.73385,-2.399919 12.21885,2.344099 13.50193,-4.149806 12.89275,-5.400936 -1.7778,-3.630017 -9.22632,0.50118 -11.31517,2.25875 -2.14023,-0.895976 -3.09608,-1.501923 -5.16673,-2.109083 2.13941,-2.3352 4.6255,-4.447924 6.85753,-6.387115 24.72452,-1.778604 20.69524,-21.776463 1.13708,-3.337965 -5.68288,-0.04854 -14.46748,0.71759 -20.51441,2.331964 -0.0515,-0.495113 3.77847,-5.332573 7.00762,-6.627392 6.02549,5.434105 15.02409,0.01861 18.97771,-6.781101 5.94579,-2.247827 9.96494,-6.694133 11.44137,-11.282823 l 0.29408,-0.798087 c -1.2483,2.269268 -5.62625,6.498354 -10.30473,7.699324"
     id="path9231"
     style="fill:#1476c6;fill-opacity:1;fill-rule:nonzero;stroke:none;stroke-width:0.40450382"
     inkscape:connector-curvature="0" /></svg>