<?xml version="1.0" encoding="UTF-8" standalone="no"?>
<!-- Created with Inkscape (http://www.inkscape.org/) -->

<svg
   xmlns:dc="http://purl.org/dc/elements/1.1/"
   xmlns:cc="http://creativecommons.org/ns#"
   xmlns:rdf="http://www.w3.org/1999/02/22-rdf-syntax-ns#"
   xmlns:svg="http://www.w3.org/2000/svg"
   xmlns="http://www.w3.org/2000/svg"
   version="1.1"
   width="198.68867"
   height="136.91109"
   id="svg8993"
   xml:space="preserve"><metadata
     id="metadata8999"><rdf:RDF><cc:Work
         rdf:about=""><dc:format>image/svg+xml</dc:format><dc:type
           rdf:resource="http://purl.org/dc/dcmitype/StillImage" /><dc:title></dc:title></cc:Work></rdf:RDF></metadata><defs
     id="defs8997"><clipPath
       id="clipPath9007"><path
         d="m 0,0 841.89,0 0,595.276 L 0,595.276 0,0 z"
         id="path9009" /></clipPath><clipPath
       id="clipPath9123"><path
         d="m 243.926,234.328 335.703,0 0,233.389 -335.703,0 0,-233.389 z"
         id="path9125" /></clipPath><clipPath
       id="clipPath9217"><path
         d="m 253.019,245.4 318.49,0 0,219.463 -318.49,0 0,-219.463 z"
         id="path9219" /></clipPath><clipPath
       id="clipPath9237"><path
         d="m 251.683,125.21 172.925,0 0,49.538 -172.925,0 0,-49.538 z"
         id="path9239" /></clipPath><clipPath
       id="clipPath9331"><path
         d="m 257.379,126.717 160.223,0 0,44.826 -160.223,0 0,-44.826 z"
         id="path9333" /></clipPath><clipPath
       id="clipPath9351"><path
         d="m 0,0 841.89,0 0,595.276 L 0,595.276 0,0 z"
         id="path9353" /></clipPath><clipPath
       id="clipPath9217-4"><path
         d="m 253.019,245.4 318.49,0 0,219.463 -318.49,0 0,-219.463 z"
         id="path9219-0" /></clipPath><clipPath
       id="clipPath9123-9"><path
         d="m 243.926,234.328 335.703,0 0,233.389 -335.703,0 0,-233.389 z"
         id="path9125-4" /></clipPath></defs><g
     transform="matrix(1.25,0,0,-1.25,-407.09741,382.82956)"
     id="g9001"><g
       transform="matrix(0.49907679,0,0,0.49907679,299.09535,113.02579)"
       id="g9557"><g
         transform="translate(-199.75555,-77.67236)"
         id="g9119"><g
           clip-path="url(#clipPath9123-9)"
           id="g9121"><g
             transform="matrix(0.4499969,0,0,-0.4499969,420.94489,297.63794)"
             id="g9127"><g
               transform="translate(-216.1537,-51.183)"
               id="g9129"><path
                 d="m 0,0 c -16.84,0 -21.905,-15.657 -21.905,-31.143 0,-15.65 5.065,-31.324 21.905,-31.324 17.005,0 22.1,15.674 22.1,31.324 C 22.1,-15.657 17.005,0 0,0 m 0,-82.657 c -28.409,0 -46.81,20.373 -46.81,51.514 0,30.955 18.401,51.335 46.81,51.335 28.579,0 46.997,-20.38 46.997,-51.335 0,-31.141 -18.418,-51.514 -46.997,-51.514"
                 id="path9131"
                 style="fill:#1476c6;fill-opacity:1;fill-rule:nonzero;stroke:none" /></g></g><g
             transform="matrix(0.4499969,0,0,-0.4499969,420.94489,297.63794)"
             id="g9133"><g
               transform="translate(-109.5367,-33.649)"
               id="g9135"><path
                 d="m 0,0 31.756,-97.571 -26.84,0 -19.257,71.449 -19.255,-71.449 -26.84,0 L -28.681,0 0,0 z"
                 id="path9137"
                 style="fill:#1476c6;fill-opacity:1;fill-rule:nonzero;stroke:none" /></g></g><g
             transform="matrix(0.4499969,0,0,-0.4499969,420.94489,297.63794)"
             id="g9139"><g
               transform="translate(-316.1638,84.937)"
               id="g9141"><path
                 d="m 0,0 c 33.064,0 44.843,-21.903 44.843,-47.668 l 0,-70.918 -11.356,0 0,68.273 c 0.155,29.11 -11.609,40.166 -33.487,40.166 -21.878,0 -33.642,-11.056 -33.487,-40.166 l 0,-68.273 -11.356,0 0,70.918 C -44.843,-21.903 -33.065,0 0,0"
                 id="path9143"
                 style="fill:#1476c6;fill-opacity:1;fill-rule:nonzero;stroke:none" /></g></g><g
             transform="matrix(0.4499969,0,0,-0.4499969,420.94489,297.63794)"
             id="g9145"><path
               d="m -161.934,82.335 11.054,0 0,-90.513 -11.054,0 0,90.513 z"
               id="path9147"
               style="fill:#1476c6;fill-opacity:1;fill-rule:nonzero;stroke:none" /></g><g
             transform="matrix(0.4499969,0,0,-0.4499969,420.94489,297.63794)"
             id="g9149"><g
               transform="translate(-91.3687,82.335)"
               id="g9151"><path
                 d="m 0,0 34.922,-90.513 -12.278,0 -28.838,79.466 -28.839,-79.466 -12.276,0 L -12.389,0 0,0 z"
                 id="path9153"
                 style="fill:#1476c6;fill-opacity:1;fill-rule:nonzero;stroke:none" /></g></g><g
             transform="matrix(0.4499969,0,0,-0.4499969,420.94489,297.63794)"
             id="g9155"><path
               d="m 166.93,82.335 11.049,0 0,-90.513 -11.049,0 0,90.513 z"
               id="path9157"
               style="fill:#1476c6;fill-opacity:1;fill-rule:nonzero;stroke:none" /></g><g
             transform="matrix(0.4499969,0,0,-0.4499969,420.94489,297.63794)"
             id="g9159"><g
               transform="translate(45.7803,-33.6349)"
               id="g9161"><path
                 d="m 0,0 0,-52.087 c 0,-19.811 5.787,-27.928 19.283,-27.928 11.57,0 15.974,7.928 15.974,23.969 l 0,56.046 24.899,0 0,-60 c 0,-24.169 -6.68,-40.205 -33.164,-40.205 -10.508,0 -22.395,5.364 -28.231,16.225 l 0,-13.605 -23.666,0 0,97.585 L 0,0"
                 id="path9163"
                 style="fill:#1476c6;fill-opacity:1;fill-rule:nonzero;stroke:none" /></g></g><g
             transform="matrix(0.4499969,0,0,-0.4499969,420.94489,297.63794)"
             id="g9165"><g
               transform="translate(146.7844,-155.4019)"
               id="g9167"><path
                 d="m 0,0 -24.905,8.642 0,15.534 -9.474,0 0,17.937 9.474,0 0,50.475 c 0,23.645 13.192,30.311 28.463,30.311 4.442,0 9.338,-0.148 13.36,-0.746 l 0,-20.93 c -2.19,0.382 -4.291,0.535 -6.539,0.535 C 1.963,101.758 0,99.496 0,81.012 l 0,-38.891 16.918,0 0,-17.945 L 0,24.176 0,0"
                 id="path9169"
                 style="fill:#1476c6;fill-opacity:1;fill-rule:nonzero;stroke:none" /></g></g><g
             transform="matrix(0.4499969,0,0,-0.4499969,420.94489,297.63794)"
             id="g9171"><g
               transform="translate(-243.0287,82.335)"
               id="g9173"><path
                 d="m 0,0 0,-52.804 c 0.345,-17.702 10.87,-31.03 28.393,-31.03 17.89,0 22.977,11.742 22.977,27.356 l 0,56.478 11.054,0 0,-58.232 c 0,-21.559 -9.248,-34.904 -33.143,-34.904 -12.4,0 -25.824,7.789 -29.845,18.652 l 0,-16.029 -10.497,0 0,90.513 L 0,0"
                 id="path9175"
                 style="fill:#1476c6;fill-opacity:1;fill-rule:nonzero;stroke:none" /></g></g><g
             transform="matrix(0.4499969,0,0,-0.4499969,420.94489,297.63794)"
             id="g9177"><g
               transform="translate(53.2293,82.335)"
               id="g9179"><path
                 d="M 0,0 0,-48.252 C 0,-66.994 12.551,-82.09 33.67,-82.09 l 0,-11.05 c -17.508,0 -28.608,9.306 -34.227,23.865 l 0,-21.238 -10.496,0 0,90.513 L 0,0"
                 id="path9181"
                 style="fill:#1476c6;fill-opacity:1;fill-rule:nonzero;stroke:none" /></g></g><g
             transform="matrix(0.4499969,0,0,-0.4499969,420.94489,297.63794)"
             id="g9183"><g
               transform="translate(103.0573,13.054)"
               id="g9185"><path
                 d="m 0,0 c 0,-12.018 10.289,-14.871 22.76,-14.871 6.713,0 15.646,2.152 22.019,5.498 l 0,-10.693 c -8.386,-2.749 -18.41,-3.795 -23.363,-3.795 -16.812,0 -32.779,6.466 -32.779,23.861 0,29.025 49.619,23.711 49.619,45.902 0,11.739 -12.359,16.991 -23.869,16.991 -9.401,0 -18.51,-2.553 -25.801,-5.959 l 0,11.041 c 8.314,2.902 17.578,3.908 26.568,3.908 14.772,0 34.44,-6.631 34.44,-25.981 C 49.594,14.9 0,17.793 0,0"
                 id="path9187"
                 style="fill:#1476c6;fill-opacity:1;fill-rule:nonzero;stroke:none" /></g></g><g
             transform="matrix(0.4499969,0,0,-0.4499969,420.94489,297.63794)"
             id="g9189"><g
               transform="translate(280.7354,82.335)"
               id="g9191"><path
                 d="m 0,0 c -8.451,20.807 -18.94,32.328 -32.11,33.75 l -3.695,-8.611 C -22.129,23.139 -15.733,10.58 -11.201,0 l -6.348,0 -31.701,-81.896 -18.553,0 0,55.601 c 0,9.731 0.342,17.662 8.063,17.662 2.101,0 5.761,0.032 8.599,-0.271 l 0,9.295 c -3.252,0.211 -6.67,0.293 -8.933,0.293 -14.401,0 -18.782,-9.233 -18.782,-26.551 l 0,-56.029 -11.838,0 0,-8.619 11.838,0 0,-19.868 11.149,0 0,19.868 27.601,0 31.721,82.955 32.881,-82.955 12.271,0 L 0,0"
                 id="path9193"
                 style="fill:#1476c6;fill-opacity:1;fill-rule:nonzero;stroke:none" /></g></g><g
             transform="matrix(0.4499969,0,0,-0.4499969,420.94489,297.63794)"
             id="g9195"><g
               transform="translate(291.2623,-131.226)"
               id="g9197"><path
                 d="M 0,0 -22.918,71.457 -45.984,0 -66.582,0 c -17.349,0 -24.271,9.707 -27.004,17.937 l 0,-17.937 -23.666,0 0,97.577 24.904,0 0,-43.773 c 0,-21.47 8.551,-31.673 26.307,-32.039 l 25.717,75.812 9.859,0 c -3.884,11.598 -6.414,17.437 -11.957,21.203 l 8.133,21.268 0.002,0.005 C -22,136.063 -12.262,115.846 -6.98,101.217 L 26.16,0 0,0"
                 id="path9199"
                 style="fill:#1476c6;fill-opacity:1;fill-rule:nonzero;stroke:none" /></g></g><g
             transform="matrix(0.4499969,0,0,-0.4499969,420.94489,297.63794)"
             id="g9201"><g
               transform="translate(-289.2771,-73.89)"
               id="g9203"><path
                 d="m 0,0 c -3.699,11.92 -12.1,19.754 -25.257,19.754 -23.554,0 -32.414,-21.047 -32.414,-41.903 0,-21.926 8.86,-42.965 32.414,-42.965 12.421,0 23.313,8.618 25.731,20.231 l 23.738,-8.242 C 17.595,-75.803 -2.219,-88.27 -25.257,-88.27 c -36.918,0 -58.637,28.934 -58.637,66.121 0,36.11 21.719,65.046 58.637,65.046 23.65,0 41.614,-13.099 49.019,-34.645 L 0,0"
                 id="path9205"
                 style="fill:#1476c6;fill-opacity:1;fill-rule:nonzero;stroke:none" /></g></g><g
             transform="matrix(0.4499969,0,0,-0.4499969,420.94489,297.63794)"
             id="g9207"><g
               transform="translate(-33.7927,-113.65)"
               id="g9209"><path
                 d="m 0,0 c 12.082,0 17.973,7.223 19.811,20.756 l -40.518,0 C -20.34,13.219 -15.781,0 0,0 m 20.092,52.517 c -2.888,5.145 -9.992,9.95 -18.531,9.95 -13.84,0 -21.557,-7.733 -22.268,-24.727 l 65.413,0 C 46.477,7.728 31.553,-20.19 0.704,-20.19 c -27.534,0 -46.302,22.264 -46.302,51.514 0,30.211 17.705,51.335 46.302,51.335 17.453,0 30.818,-7.127 38.757,-23.417 L 20.092,52.517"
                 id="path9211"
                 style="fill:#1476c6;fill-opacity:1;fill-rule:nonzero;stroke:none" /></g></g></g></g><g
         transform="translate(-199.75555,-77.67236)"
         id="g9213"><g
           clip-path="url(#clipPath9217-4)"
           id="g9215"><g
             transform="matrix(0.4499969,0,0,-0.4499969,420.94489,297.63794)"
             id="g9221"><g
               transform="translate(-13.4796,-1.499)"
               id="g9223"><path
                 d="m 0,0 c 17.885,0 28.217,15.617 28.758,32.274 l -58.581,0 C -28.055,15.793 -18.074,0 0,0 M 26.307,60.16 C 21.906,70.438 13.551,77.155 0,77.155 c -21.231,0 -29.647,-19.459 -29.823,-35.59 l 69.624,0 C 40.666,16.123 29.09,-9.302 0,-9.302 c -28.764,0 -40.883,24.037 -40.883,47.894 0,25.754 12.119,47.844 40.883,47.844 18.932,0 30.34,-8.231 36.387,-22.776 l -0.002,0 -10.078,-3.5"
                 id="path9225"
                 style="fill:#1476c6;fill-opacity:1;fill-rule:nonzero;stroke:none" /></g></g><g
             transform="matrix(0.4499969,0,0,-0.4499969,420.94489,297.63794)"
             id="g9227"><g
               transform="translate(304.8484,-247.095)"
               id="g9229"><path
                 d="m 0,0 c -11.625,3.701 -23.547,7.472 -34.682,12.592 -4.369,1.847 -8.763,4.588 -12.88,7.236 -1.711,-6.01 0.025,-12.704 4.541,-16.209 3.496,2.569 7.769,3.905 12.513,3.205 9.33,-1.067 14.584,-9.582 18.178,-18.338 C -5.637,-14.69 1.125,-17.811 7.229,-21.881 6.022,-14.9 3.49,-7.666 1.145,-1.068 0.855,-0.383 1.098,-0.31 0,0 m -44.359,25.545 c 12.187,-5.074 28.369,-10.773 40.951,-14.699 -5.133,8.742 -26.518,26.479 -40.951,14.699 m 29.427,-36.006 c -2.189,4.916 -5.474,10.868 -10.132,13.588 -4.571,2.9 -12.301,2.671 -16.645,-0.734 7.035,-5.619 18.236,-9.485 26.777,-12.854 m 7.217,-39.471 c -0.328,9.183 -1.453,17.417 -3.947,25.731 -2.975,1.854 -26.9,13.824 -32.682,22.953 -5.779,-17.453 27.356,-36.94 36.629,-48.684 m 2.32,-2.724 c 2.569,-3.065 7.856,-12.383 8.561,-14.486 4.049,-9.622 4.236,-20.366 4.049,-24.729 1.336,4.335 2.133,8.921 2.666,13.5 1.853,14.155 0.822,29.497 -0.932,43.978 -5.74,3.733 -11.711,6.401 -17.763,8.995 1.951,-8.794 3.548,-17.394 3.419,-27.258 m -14.878,97.97 c -4.631,4.562 -10.569,9.82 -15.485,14.785 -9.603,-3.172 -20.826,-4.332 -31.058,-2.336 -0.047,-3.541 0.16,-6.503 1.295,-9.911 14.037,-2.812 30.336,-2.031 45.248,-2.538 m -6.5,28.006 c -5.166,4.607 -15.182,7.7 -24.887,5.12 l 11.055,-8.943 c 4.679,1.792 9.064,2.428 13.832,3.823 m -26.811,4.482 c 0,0 -8.766,-4.693 -12.779,-16.059 7.863,0.647 16.517,4.467 23.605,6.909 0,0 -7.476,6.285 -10.826,9.15 m -22.42,6.163 c 2.104,-6.407 1.867,-13.471 -0.574,-20.014 0.365,-0.26 5.588,-2.303 8.168,-2.112 4.59,12.308 12.834,16.387 13.521,17.088 -5.793,4.437 -13.74,6.888 -21.115,5.038 m -2.695,-1.114 c -10.467,-9.194 -1.256,-17.174 0.15,-17.807 1.635,5.221 1.782,12.718 -0.15,17.807 m -26.492,0.72 c 12.187,-9.089 5.73,-17.511 1.277,-21.676 0.984,-1.915 2.074,-4.273 4.426,-6.386 2.623,2.367 3.66,5.964 4,9.986 0.597,0.02 0.525,-0.011 1.67,0.034 0.24,-4.306 -1.619,-8.484 -4.123,-11.729 1.546,-1.429 5.879,-5.194 7.203,-5.777 2.207,1.916 3.986,3.824 6.092,6.369 0,0 -5.176,5.155 -4.973,11.29 l 1.578,0.065 c 0.75,-3.22 0.469,-5.341 4.814,-9.546 1.77,2.074 3.11,4.205 3.879,6.717 -2.578,2.135 -13.019,11.339 -0.177,21.703 -13.705,20.686 -25.539,0 -25.666,-1.05 m 0.433,-19.62 c 9.168,8.74 1.76,15.747 -1.203,17.743 0,0 -2.408,-8.336 1.203,-17.743 m -4.043,18.718 c -7.478,1.134 -15.463,-2.468 -20.568,-6.579 10.834,-6.063 13.924,-15.196 14.748,-16.136 2.951,0.374 5.504,1.35 7.902,2.753 -2.185,4.824 -4.222,13.127 -2.082,19.962 m -31.924,-17.721 c 7.432,-2.007 15.62,-4.968 23.872,-5.105 0.029,1.144 -6.741,11.717 -13.79,14.946 -3.363,-3.233 -10.082,-9.841 -10.082,-9.841 m -16.291,3.554 c 1.131,-0.118 9.807,-1.824 14.002,-2.886 3.186,3.154 7.002,6.704 10.393,9.805 0,0 -14.693,2.559 -24.395,-6.919 m -4.332,-28.392 c 10.041,0.808 38.467,3.028 44.707,5.738 0.946,2.913 0.932,6.986 0.649,9.956 -9.846,-2.43 -21.555,-2.659 -31.231,0.074 0,0 -9.75,-10.79 -14.125,-15.768 m 47.286,6.433 c 4.576,1.125 9.246,4.449 13.074,7.291 -2.324,2.5 -3.248,4.089 -4.535,6.682 -2.422,-1.81 -4.288,-2.687 -8.584,-4.163 0.375,-3.146 0.396,-6.705 0.045,-9.81 m -16.805,-28.711 c 3.105,-7.575 1.482,-13.309 -2.262,-20.443 11.186,-14.788 -2.982,-35.035 -13.191,-45.277 -5.311,-5.619 -17.875,-19.419 -18.862,-21.033 -2.351,-23.802 9.149,-44.857 9.998,-46.573 -5.697,12.319 -8.578,29.699 23.891,69.989 5.75,7.149 13.639,15.218 13.254,25.724 -0.162,9.456 -7.758,17.051 -6.717,25.583 0.815,5.662 3.969,10.433 10.008,11.58 6.441,1.222 11.693,-0.629 15.777,-5.126 13.151,-17.111 -7.103,-29.628 -7.181,-46.704 -0.028,-6.491 3.73,-10.426 9.406,-12.496 3.961,-1.139 9.18,-2.324 12.334,0.846 -1.135,0.129 -3.395,0.547 -6.135,1.905 l 0.031,0.083 c -0.353,-0.52 -0.949,-0.861 -1.623,-0.861 -1.086,0 -1.962,0.879 -1.962,1.962 0,0.3 0.072,0.58 0.193,0.835 0.285,0.737 0.978,1.316 2.121,1.092 0.043,-0.008 0.086,-0.02 0.131,-0.032 0.385,-0.092 0.812,-0.27 1.293,-0.562 2.582,-1.565 5.668,-2.132 7.094,-2.32 l 0.002,0.007 c 12.269,-0.88 8.919,5.694 8.919,5.694 0,0 -9.49,-5.346 -18.718,3.425 -13.748,15.355 49.267,45.702 1.998,80.27 -1.979,-1.793 -8.061,-5.86 -12.069,-7.529 -0.357,0.465 -0.56,0.852 -0.84,1.275 4.049,1.901 8.163,4.443 11.383,7.265 -2.886,1.936 -4.402,3.417 -6.672,5.591 -4.236,-4.282 -9.13,-7.788 -15.271,-10.394 -2.98,-9.308 -9.133,-17.294 -16.33,-23.776 m -1.565,-1.474 c -11.054,-8.315 -29.203,-16.745 -46.871,-23.47 -1.591,-4.178 -4.537,-19.453 -4.726,-21.878 5.037,4.112 12.568,8.884 18.939,12.063 8.252,26.7 25.735,19.417 29.326,17.014 4.485,4.367 5.305,10.182 3.332,16.271 M -175.764,4.407 c 9.004,3.261 37.428,16.353 39.653,17.657 -2.951,3.042 -21.637,9.762 -39.653,-17.657 m -4.691,-99.638 c -0.377,4.96 0.182,17.346 11.148,36.57 -0.509,9.097 0.233,18.492 1.491,27.204 -6.032,-2.966 -11.276,-6.731 -17.024,-10.089 -0.504,-7.682 0.483,-45.304 4.385,-53.685 m 43.381,93.942 c -1.276,1.184 -18.119,8.832 -25.611,-14.613 8.351,3.806 18.728,8.676 25.611,14.613 m -29.973,-54.52 c 4.908,8.021 40.295,34.853 32.885,50.879 -8.781,-12.178 -30.094,-23.776 -30.928,-24.851 -1.635,-8.026 -2.113,-17.269 -1.957,-26.028 m 98.94,104.185 c -0.375,3.218 -0.743,4.528 -0.588,9.815 -3.116,0.792 -6.364,1.774 -8.887,3.52 -1.045,-2.589 -2.406,-4.906 -4.063,-7.003 0,0 6.622,-4.724 13.538,-6.332 m 91.73,-27.712 c 6.035,8.453 -21.072,15.705 -32.904,16.065 0,0 24.586,-23.977 32.904,-16.065 M 6.453,61.743 C 7.369,65.44 -3.707,73.893 -18.254,66.815 -4.16,56.576 5.725,56.904 6.453,61.743 m -195.881,-6.438 c 1.391,-9.729 20.254,2.008 24.366,6.011 -6.223,3.06 -24.211,2.926 -24.366,-6.011 M -204.1,13.104 c 6.153,-8.697 25.75,10.367 32.249,17.566 -3.702,-0.541 -37.528,-7.924 -32.249,-17.566 M 3.795,-1.336 c 5.072,-13.657 4.471,-15.1 6.279,-22.066 16.17,-8.54 19.875,-29.548 19.674,-31.831 -0.336,-6.259 -0.019,-2.796 -0.631,-0.661 -1.783,6.228 -7.668,13.242 -12.98,17.34 -1.35,0.823 -2.969,2.262 -4.662,2.984 0.382,-5.77 6.654,-42.192 -7.602,-70.265 l -0.09,0.077 c 4.565,14.099 -1.576,29.525 -10.01,39.99 -0.173,-1.976 -3.378,-38.404 -19.437,-56.729 l -1.355,-1.679 c 2.429,3.871 5.369,26.082 -7.416,47.65 -6.491,9.837 -15.372,18.406 -23.133,27.145 -7.319,9.193 -10.815,18.106 -7.379,34.146 1.138,4.326 2.951,10.93 4.894,12.445 1.151,0.47 0.981,-0.998 0.594,-1.906 -1.951,-4.189 -4.91,-20.807 13.803,-42.424 31.445,-36.299 22.711,-68.12 22.711,-68.12 5.045,5.352 13.297,35.516 14.187,52.02 -9.783,11.291 -45.058,36.549 -39.677,56.568 0.619,2.635 1.71,5.229 2.941,7.39 -4.656,7.461 -6.229,13.052 -3.773,20.338 -7.038,5.689 -14.7,13.452 -17.92,22.357 -5.663,2.112 -11.071,4.866 -16.02,9.329 -1.941,-2.169 -3.523,-3.961 -5.824,-5.71 1.474,-0.86 15.56,-8.454 21.103,-14.295 5.379,-5.589 8.61,-13.323 6.582,-21.841 -3.566,-15.01 -37.113,-34.735 -30.015,-43.407 3.713,-4.625 12.043,-6.8 16.869,-3.45 l 0,-0.007 c 0,0 0.041,0.031 0.097,0.066 0.028,0.017 0.047,0.029 0.09,0.06 l -0.013,0.004 c 0.271,0.194 0.787,0.597 1.019,0.844 2.229,-3.259 4.512,-11.627 -8.551,-11.531 -1.043,-2.665 -4.244,-3.663 -7.043,-4.018 -8.363,-0.564 -16.404,3.17 -19.476,10.423 -3.895,9.137 7.621,29.289 6.859,42.31 0.487,11.096 -21.732,18.48 -21.398,1.178 0.148,-7.77 18.279,-28.836 1.496,-53.17 -6.272,-8.37 -13.652,-16.144 -19.887,-24.106 -22.75,-29.054 -9.195,-50.616 -9.457,-50.632 -22.203,28.691 -17.06,52.399 -17.621,51.296 -1.461,-2.689 -13.957,-17.615 -7.881,-36.952 0,0 -13.707,17.234 -11.261,67.009 -2.375,-1.441 -16.708,-14.395 -16.149,-24.112 0,0 -3.31,21.377 16.842,36.716 1.555,7.845 2.035,14.602 4.596,22.33 -7.784,-2.82 -19.84,-12.01 -23.791,-20.6 -0.547,-1.58 2.336,19.551 26.56,31.658 19.471,33.414 41.252,24.503 45.709,20.114 6.299,2.417 15.522,15.684 15.983,17.536 -12.784,-4.053 -33.594,-8.871 -49.743,-9.414 -9.125,-9.185 -29.525,-28.492 -38.222,-19.179 -9.317,11.98 23.181,25.884 40.099,27.665 4.549,4.814 11.239,11.46 15.705,16.995 -5.164,1.287 -5.976,1.658 -13.119,4.186 -24.246,-19.877 -27.91,-6.358 -27.91,-6.358 -3.662,16.24 27.615,15.373 31.254,14.489 8.978,9.303 22.217,10.13 28.602,8.091 9.46,8.752 19.519,8.47 22.601,7.701 10.305,23.722 28.061,12.102 32.17,1.233 8.937,2.348 16.494,-1.263 23.166,-6.048 4.498,1.57 17.166,3.831 29.008,-5.933 C 6.049,79.698 9.221,63.644 7.715,60.551 3.32,51.577 -15.094,61.79 -20.258,66.135 c -5.291,-2.215 -7.654,-3.713 -12.773,-5.214 5.289,-5.773 11.435,-10.996 16.953,-15.79 61.123,-4.397 51.162,-53.835 2.811,-8.252 -14.049,-0.12 -35.766,1.774 -50.715,5.765 C -64.109,41.42 -54.641,29.461 -46.658,26.26 -31.762,39.694 -9.516,26.306 0.258,9.496 14.957,3.939 24.893,-7.053 28.543,-18.397 L 29.27,-20.37 C 26.184,-14.76 15.361,-4.305 3.795,-1.336"
                 id="path9231"
                 style="fill:#1476c6;fill-opacity:1;fill-rule:nonzero;stroke:none" /></g></g></g></g></g></g></svg>